%FSDAX23Y23*%
%MOIN*%
%SFA1B1*%

%IPPOS*%
%ADD10R,0.059100X0.051200*%
%ADD11R,0.114200X0.072800*%
%ADD12R,0.051200X0.023600*%
%ADD13R,0.043300X0.039400*%
%ADD14R,0.039400X0.043300*%
%ADD15R,0.061000X0.043300*%
%ADD16R,0.061000X0.043300*%
%ADD17R,0.061000X0.135800*%
%ADD18C,0.019700*%
%ADD19C,0.023600*%
%ADD20C,0.039400*%
%ADD21C,0.059100*%
%ADD22R,0.059100X0.059100*%
%ADD23R,0.059100X0.059100*%
%ADD24C,0.053100*%
%ADD25R,0.053100X0.053100*%
%ADD26R,0.053100X0.053100*%
%ADD27C,0.060000*%
%ADD28C,0.050000*%
%LNdriver-1*%
%LPD*%
G54D10*
X03195Y02387D03*
Y02312D03*
X02400Y02287D03*
Y02212D03*
G54D11*
X03075Y02264D03*
Y02445D03*
G54D12*
X03043Y03247D03*
Y03172D03*
X03126Y03210D03*
Y02872D03*
Y02947D03*
X03043Y02910D03*
X03126Y03302D03*
Y03377D03*
X03043Y03340D03*
Y02818D03*
Y02743D03*
X03126Y02781D03*
X02786Y03247D03*
Y03172D03*
X02869Y03210D03*
Y02872D03*
Y02947D03*
X02786Y02910D03*
X02870Y03302D03*
Y03377D03*
X02787Y03340D03*
X02786Y02818D03*
Y02743D03*
X02869Y02781D03*
X02531Y03247D03*
Y03172D03*
X02614Y03210D03*
Y02872D03*
Y02947D03*
X02531Y02910D03*
X02613Y03301D03*
Y03376D03*
X02530Y03339D03*
X02532Y02818D03*
Y02743D03*
X02615Y02781D03*
X02276Y03247D03*
Y03172D03*
X02359Y03210D03*
Y02872D03*
Y02947D03*
X02276Y02910D03*
X02357Y03301D03*
Y03376D03*
X02274Y03339D03*
X02275Y02818D03*
Y02743D03*
X02358Y02781D03*
X02021Y03247D03*
Y03172D03*
X02104Y03210D03*
Y02872D03*
Y02947D03*
X02021Y02910D03*
X02102Y03301D03*
Y03376D03*
X02019Y03339D03*
X02033Y02817D03*
Y02742D03*
X02116Y02780D03*
G54D13*
X03196Y03325D03*
X03263D03*
G54D14*
X02980Y02788D03*
Y02721D03*
X02933Y03316D03*
Y03383D03*
X02720Y02788D03*
Y02721D03*
X02675Y03316D03*
Y03383D03*
X02475Y02788D03*
Y02721D03*
X02417Y03316D03*
Y03383D03*
X02215Y02788D03*
Y02721D03*
X02160Y03316D03*
Y03383D03*
X01966Y02789D03*
Y02722D03*
G54D15*
X02572Y02315D03*
G54D16*
X02572Y02225D03*
Y02134D03*
G54D17*
X02837Y02225D03*
G54D18*
X02082Y02620D02*
X02091Y02611D01*
X02136Y02710D02*
X02174Y02672D01*
X01967Y02710D02*
X02136D01*
X01967Y02710D02*
X01967Y02710D01*
X02675Y03383D02*
Y03405D01*
X02215Y02721D02*
X02390Y02546D01*
Y02455D02*
Y02546D01*
Y02455D02*
X02455Y02390D01*
X02425Y02671D02*
X02475Y02721D01*
X02360Y02442D02*
X02442Y02360D01*
X02360Y02442D02*
Y02534D01*
X02222Y02672D02*
X02360Y02534D01*
X02174Y02672D02*
X02222D01*
X02646Y02521D02*
X02697Y02471D01*
X02443Y02521D02*
X02646D01*
X02425Y02540D02*
X02443Y02521D01*
X02425Y02540D02*
Y02671D01*
X02455Y02390D02*
X02745D01*
X02797Y02442*
Y02471*
X02497Y02458D02*
Y02471D01*
X02442Y02360D02*
X02770D01*
X02881Y02471*
X02897*
X02551Y03583D02*
X02555Y03580D01*
X02551Y03583D02*
Y03658D01*
X02510Y03700D02*
X02551Y03658D01*
X02347Y03465D02*
X02417Y03395D01*
Y03383D02*
Y03395D01*
X03263Y03325D02*
Y03400D01*
X03218Y03446D02*
X03263Y03400D01*
X02747Y03446D02*
X03218D01*
X02933Y03383D02*
Y03402D01*
X02738Y03413D02*
X02922D01*
X02933Y03402*
X02371Y03499D02*
X02456Y03414D01*
X02667*
X02675Y03405*
X02468Y03446D02*
X02705D01*
X02738Y03413*
X02709Y03483D02*
X02747Y03446D01*
X02481Y03483D02*
X02709D01*
X01953Y02620D02*
X02082D01*
X01942Y02675D02*
X02023D01*
X02381Y03532D02*
X02468Y03446D01*
X02430Y03535D02*
X02481Y03483D01*
X01959Y02571D02*
X02132D01*
X02160Y03383D02*
Y03415D01*
X01892Y03366D02*
X01991Y03465D01*
X01924Y03071D02*
Y03356D01*
X01982Y03415*
X02160*
X01991Y03465D02*
X02347D01*
X01924Y03071D02*
X01943Y03052D01*
X02430Y03535D02*
Y03570D01*
X01860Y03385D02*
X01974Y03499D01*
X02371*
X01830Y03400D02*
X01962Y03532D01*
X02381*
X01892Y02972D02*
Y03366D01*
X01920Y02696D02*
Y02944D01*
X01892Y02972D02*
X01920Y02944D01*
Y02696D02*
X01942Y02675D01*
X01860Y02955D02*
Y03385D01*
Y02955D02*
X01890Y02925D01*
Y02683D02*
Y02925D01*
Y02683D02*
X01953Y02620D01*
X01830Y02940D02*
Y03400D01*
Y02940D02*
X01860Y02910D01*
Y02670D02*
Y02910D01*
Y02670D02*
X01959Y02571D01*
X01815Y02700D02*
X01825Y02690D01*
Y02645D02*
Y02690D01*
Y02645D02*
X01970Y02500D01*
Y02470D02*
Y02500D01*
G54D19*
X02975Y03012D02*
Y03055D01*
Y03012D02*
X03039Y02947D01*
X03126*
X03075Y03055D02*
Y03141D01*
X03043Y03172D02*
X03075Y03141D01*
X02875Y03055D02*
Y03150D01*
X02852Y03172D02*
X02875Y03150D01*
X02786Y03172D02*
X02852D01*
X02805Y02947D02*
X02869D01*
X02775Y02978D02*
X02805Y02947D01*
X02775Y02978D02*
Y03055D01*
X02531Y03172D02*
X02646D01*
X02675Y03144*
Y03055D02*
Y03144D01*
X02575Y02986D02*
X02614Y02947D01*
X02575Y02986D02*
Y03055D01*
X02359Y02947D02*
X02375Y02963D01*
Y03055*
X02104Y02947D02*
X02142D01*
X02175Y02980*
Y03055*
X02021Y03172D02*
X02157D01*
X02275Y03055*
X02276Y03172D02*
X02432D01*
X02475Y03130*
Y03055D02*
Y03130D01*
X02222Y02872D02*
X02359D01*
X02479D02*
X02614D01*
X02987D02*
X03126D01*
X02021Y03247D02*
X02159D01*
X02276D02*
X02417D01*
X02531D02*
X02671D01*
X02786D02*
X02926D01*
X03043D02*
X03182D01*
X02274Y03320D02*
Y03339D01*
X02530Y03320D02*
Y03339D01*
X02787Y03325D02*
Y03340D01*
X03043Y03324D02*
Y03340D01*
X02019Y03320D02*
Y03339D01*
X02005Y03306D02*
X02019Y03320D01*
X01971Y03210D02*
X02104D01*
X03001Y03377D02*
X03126D01*
X02976Y03352D02*
X03001Y03377D01*
X02976Y03210D02*
Y03352D01*
X02869Y03210D02*
X02976D01*
X03126*
X02743Y03377D02*
X02870D01*
X02721Y03355D02*
X02743Y03377D01*
X02721Y03210D02*
Y03355D01*
X02614Y03210D02*
X02721D01*
X02869*
X02609Y03372D02*
X02613Y03376D01*
X02496Y03372D02*
X02609D01*
X02467Y03343D02*
X02496Y03372D01*
X02467Y03210D02*
Y03343D01*
X02359Y03210D02*
X02467D01*
X02614*
X02353Y03372D02*
X02357Y03376D01*
X02240Y03372D02*
X02353D01*
X02104Y03210D02*
X02359D01*
X02208D02*
Y03340D01*
X02240Y03372*
X02102Y03301D02*
X02124D01*
X02139Y03316*
X02160*
X02357Y03301D02*
X02370D01*
X02385Y03316*
X02417*
X02613Y03301D02*
X02633D01*
X02648Y03316*
X02675*
X02870Y03302D02*
X02892D01*
X02906Y03316*
X02933*
X03126Y03302D02*
X03147D01*
X03161Y03316*
X03191*
X03043Y02910D02*
X03185D01*
X03210Y02885*
Y02775D02*
Y02885D01*
X03178Y02743D02*
X03210Y02775D01*
X02531Y02910D02*
X03043D01*
X03126Y02781D02*
Y02791D01*
X03150Y02815*
X02869Y02781D02*
Y02804D01*
X02880Y02815*
X02615Y02781D02*
Y02800D01*
X02630Y02815*
X02358Y02781D02*
Y02793D01*
X02380Y02815*
X02104Y02781D02*
Y02799D01*
X02120Y02815*
X02021Y02743D02*
X02148D01*
X02170Y02765*
Y02910*
X02430Y02784D02*
Y02910D01*
X02021D02*
X02170D01*
X02430*
X02531*
X02676Y02774D02*
Y02905D01*
X02930Y02773D02*
Y02905D01*
X02786Y02743D02*
X02900D01*
X02930Y02773*
X02532Y02743D02*
X02646D01*
X02676Y02774*
X02275Y02743D02*
X02389D01*
X02430Y02784*
X01960Y02872D02*
X02104D01*
X02728D02*
X02869D01*
X02215Y02788D02*
X02245D01*
X02275Y02818*
X02475Y02788D02*
X02502D01*
X02532Y02818*
X02720Y02788D02*
X02756D01*
X02786Y02818*
X02980Y02788D02*
X03013D01*
X03043Y02818*
X01958Y02800D02*
X02003D01*
X02021Y02818*
X03278Y03625D02*
X03510Y03393D01*
Y03374D02*
Y03393D01*
X03075Y02743D02*
X03178D01*
X01958Y03223D02*
X01971Y03210D01*
X03126D02*
X03424D01*
X01958Y03223D02*
Y03345D01*
X01988Y03376*
X02102*
G54D20*
X02490Y02315D02*
X02572D01*
X02462Y02287D02*
X02490Y02315D01*
X02400Y02287D02*
X02462D01*
X02357D02*
X02400D01*
X02269Y02375D02*
X02357Y02287D01*
X02269Y02375D02*
Y02470D01*
X02190Y02294D02*
Y02470D01*
Y02294D02*
X02272Y02212D01*
X02400*
X02478Y02134*
X02572*
Y02225D02*
X02837D01*
X02877Y02264*
X03075D02*
X03146D01*
X03195Y02312*
X03136Y02445D02*
X03195Y02387D01*
X03075Y02445D02*
X03136D01*
X03075D02*
Y02725D01*
X03298Y02905D02*
X03325Y02931D01*
X03215Y02905D02*
X03298D01*
X03215Y02755D02*
Y02905D01*
X03185Y02725D02*
X03215Y02755D01*
X03075Y02725D02*
X03185D01*
X02572Y02315D02*
X02788D01*
X02795Y02322*
X02797*
X02860Y02385*
X03014*
X03075Y02445*
X02237Y03750D02*
X03153D01*
X03278Y03625*
X02555Y03580D02*
X02602Y03533D01*
X02555Y03580D02*
D01*
X02321Y03637D02*
X02384Y03700D01*
X02510*
X03424Y03210D02*
X03510Y03295D01*
X03410Y03196D02*
X03424Y03210D01*
X03287Y03196D02*
X03410D01*
X03249Y03158D02*
X03287Y03196D01*
X03249Y02994D02*
Y03158D01*
Y02994D02*
X03311Y02931D01*
X03325*
X03465Y03295D02*
X03510D01*
X03235Y03526D02*
X03465Y03295D01*
X03058Y03526D02*
X03235D01*
X03005Y03579D02*
X03058Y03526D01*
X03325Y03068D02*
X03397D01*
X03363Y03624D02*
X03567Y03420D01*
X03363Y03624D02*
Y03625D01*
X03397Y03068D02*
X03567Y03238D01*
Y03420*
X02124Y03637D02*
X02237Y03750D01*
X01785Y02810D02*
X01815Y02780D01*
Y02700D02*
Y02780D01*
X02877Y02264D02*
X03075D01*
G54D21*
X02897Y02471D03*
Y02571D03*
X02797Y02471D03*
Y02571D03*
X02697Y02471D03*
Y02571D03*
X02597Y02471D03*
Y02571D03*
X02497Y02471D03*
X02502Y03633D03*
Y03533D03*
X02602Y03633D03*
Y03533D03*
X02702Y03633D03*
Y03533D03*
X02802Y03633D03*
Y03533D03*
X02902Y03633D03*
X02975Y03055D03*
X02775D03*
X02675D03*
X02575D03*
X02475D03*
X02375D03*
X02275D03*
X02175D03*
X02875D03*
X03325Y02931D03*
X03081Y03625D03*
X03278D03*
X02124Y03637D03*
X02321D03*
X03575Y03005D03*
G54D22*
X02497Y02571D03*
X02902Y03533D03*
X03075Y03055D03*
G54D23*
X03325Y03068D03*
X03575Y03105D03*
G54D24*
X03510Y03295D03*
X02269Y02470D03*
G54D25*
X03510Y03374D03*
G54D26*
X02190Y02470D03*
G54D27*
X02695Y03910D03*
X03445Y02611D03*
G54D28*
X02084Y02621D03*
X02028Y02666D03*
X01943Y03052D03*
X02419Y03258D03*
X02673D03*
X03184D03*
X02005Y03306D03*
X02260D03*
X02516D03*
X02768D03*
X03025D03*
X02151Y03258D03*
X02478Y02857D03*
X02985D03*
X02120Y02815D03*
X02380D03*
X02630D03*
X02880D03*
X03150D03*
X02220Y02855D03*
X02730D03*
X02720Y02685D03*
X02980Y02677D03*
X03005Y03579D03*
X03363Y03625D03*
X02132Y02571D03*
X02940Y02265D03*
X01965Y02860D03*
X02430Y03570D03*
X02928Y03258D03*
X01785Y02810D03*
X01970Y02470D03*
M02*