%FSDAX23Y23*%
%MOIN*%
%SFA1B1*%

%IPPOS*%
%ADD10R,0.059100X0.051200*%
%ADD12R,0.051200X0.023600*%
%ADD13R,0.043300X0.039400*%
%ADD14R,0.039400X0.043300*%
%ADD29R,0.063000X0.070900*%
%ADD30R,0.049200X0.066900*%
%ADD31O,0.086600X0.023600*%
%LNdriver-1*%
%LPD*%
G54D10*
X03390Y02967D03*
Y03042D03*
X03070Y03462D03*
Y03537D03*
X03355Y03182D03*
Y03257D03*
X03275Y03182D03*
Y03257D03*
X03440Y03322D03*
Y03247D03*
X03535Y03192D03*
Y03267D03*
X03245Y02992D03*
Y03067D03*
G54D12*
X03126Y03247D03*
Y03172D03*
X03043Y03210D03*
Y02872D03*
Y02947D03*
X03126Y02910D03*
X02869Y03247D03*
Y03172D03*
X02786Y03210D03*
Y02872D03*
Y02947D03*
X02869Y02910D03*
X02614Y03247D03*
Y03172D03*
X02531Y03210D03*
Y02872D03*
Y02947D03*
X02614Y02910D03*
X02359Y03247D03*
Y03172D03*
X02276Y03210D03*
Y02872D03*
Y02947D03*
X02359Y02910D03*
X02104Y03247D03*
Y03172D03*
X02021Y03210D03*
Y02872D03*
Y02947D03*
X02104Y02910D03*
G54D13*
X03127Y03304D03*
X03060D03*
X03041Y02817D03*
X03108D03*
X02870Y03303D03*
X02803D03*
X02782Y02817D03*
X02849D03*
X02614Y03303D03*
X02547D03*
X02530Y02816D03*
X02597D03*
X02359Y03303D03*
X02292D03*
X02275Y02817D03*
X02342D03*
X03456Y03105D03*
X03523D03*
X03461Y02965D03*
X03528D03*
X02106Y03303D03*
X02039D03*
X02023Y02817D03*
X02090D03*
G54D14*
X02996Y03234D03*
Y03301D03*
X03180Y02888D03*
Y02821D03*
X02738Y03233D03*
Y03300D03*
X02917Y02884D03*
Y02817D03*
X02484Y03236D03*
Y03303D03*
X02664Y02885D03*
Y02818D03*
X02228Y03234D03*
Y03301D03*
X02410Y02885D03*
Y02818D03*
X01974Y03235D03*
Y03302D03*
X02155Y02884D03*
Y02817D03*
G54D29*
X03270Y03740D03*
X03159D03*
G54D30*
X03039Y03805D03*
X02900D03*
G54D31*
X03205Y03385D03*
Y03435D03*
Y03485D03*
Y03535D03*
X03394Y03385D03*
Y03435D03*
Y03485D03*
Y03535D03*
M02*