%FSDAX23Y23*%
%MOIN*%
%SFA1B1*%

%IPPOS*%
%ADD10R,0.059100X0.051200*%
%ADD11R,0.114200X0.072800*%
%ADD12R,0.051200X0.023600*%
%ADD13R,0.043300X0.039400*%
%ADD14R,0.039400X0.043300*%
%ADD15R,0.061000X0.043300*%
%ADD16R,0.061000X0.043300*%
%ADD17R,0.061000X0.135800*%
%LNdriver-1*%
%LPD*%
G54D10*
X03195Y02387D03*
Y02312D03*
X02400Y02287D03*
Y02212D03*
G54D11*
X03075Y02264D03*
Y02445D03*
G54D12*
X03043Y03247D03*
Y03172D03*
X03126Y03210D03*
Y02872D03*
Y02947D03*
X03043Y02910D03*
X03126Y03302D03*
Y03377D03*
X03043Y03340D03*
Y02818D03*
Y02743D03*
X03126Y02781D03*
X02786Y03247D03*
Y03172D03*
X02869Y03210D03*
Y02872D03*
Y02947D03*
X02786Y02910D03*
X02870Y03302D03*
Y03377D03*
X02787Y03340D03*
X02786Y02818D03*
Y02743D03*
X02869Y02781D03*
X02531Y03247D03*
Y03172D03*
X02614Y03210D03*
Y02872D03*
Y02947D03*
X02531Y02910D03*
X02613Y03301D03*
Y03376D03*
X02530Y03339D03*
X02532Y02818D03*
Y02743D03*
X02615Y02781D03*
X02276Y03247D03*
Y03172D03*
X02359Y03210D03*
Y02872D03*
Y02947D03*
X02276Y02910D03*
X02357Y03301D03*
Y03376D03*
X02274Y03339D03*
X02275Y02818D03*
Y02743D03*
X02358Y02781D03*
X02021Y03247D03*
Y03172D03*
X02104Y03210D03*
Y02872D03*
Y02947D03*
X02021Y02910D03*
X02102Y03301D03*
Y03376D03*
X02019Y03339D03*
X02033Y02817D03*
Y02742D03*
X02116Y02780D03*
G54D13*
X03196Y03325D03*
X03263D03*
G54D14*
X02980Y02788D03*
Y02721D03*
X02933Y03316D03*
Y03383D03*
X02720Y02788D03*
Y02721D03*
X02675Y03316D03*
Y03383D03*
X02475Y02788D03*
Y02721D03*
X02417Y03316D03*
Y03383D03*
X02215Y02788D03*
Y02721D03*
X02160Y03316D03*
Y03383D03*
X01966Y02789D03*
Y02722D03*
G54D15*
X02572Y02315D03*
G54D16*
X02572Y02225D03*
Y02134D03*
G54D17*
X02837Y02225D03*
M02*