%FSDAX23Y23*%
%MOIN*%
%SFA1B1*%

%IPPOS*%
%ADD36R,0.067100X0.059200*%
%ADD37R,0.122200X0.080800*%
%ADD38R,0.059200X0.031600*%
%ADD39R,0.051300X0.047400*%
%ADD40R,0.047400X0.051300*%
%ADD41R,0.069000X0.051300*%
%ADD42R,0.069000X0.051300*%
%ADD43R,0.069000X0.143800*%
%ADD44C,0.067100*%
%ADD45R,0.067100X0.067100*%
%ADD46R,0.067100X0.067100*%
%ADD47C,0.061100*%
%ADD48R,0.061100X0.061100*%
%ADD49R,0.061100X0.061100*%
%ADD50C,0.068000*%
%ADD51C,0.058000*%
%LNdriver-1*%
%LPD*%
G54D36*
X03195Y02387D03*
Y02312D03*
X02400Y02287D03*
Y02212D03*
G54D37*
X03075Y02264D03*
Y02445D03*
G54D38*
X03043Y03247D03*
Y03172D03*
X03126Y03210D03*
Y02872D03*
Y02947D03*
X03043Y02910D03*
X03126Y03302D03*
Y03377D03*
X03043Y03340D03*
Y02818D03*
Y02743D03*
X03126Y02781D03*
X02786Y03247D03*
Y03172D03*
X02869Y03210D03*
Y02872D03*
Y02947D03*
X02786Y02910D03*
X02870Y03302D03*
Y03377D03*
X02787Y03340D03*
X02786Y02818D03*
Y02743D03*
X02869Y02781D03*
X02531Y03247D03*
Y03172D03*
X02614Y03210D03*
Y02872D03*
Y02947D03*
X02531Y02910D03*
X02613Y03301D03*
Y03376D03*
X02530Y03339D03*
X02532Y02818D03*
Y02743D03*
X02615Y02781D03*
X02276Y03247D03*
Y03172D03*
X02359Y03210D03*
Y02872D03*
Y02947D03*
X02276Y02910D03*
X02357Y03301D03*
Y03376D03*
X02274Y03339D03*
X02275Y02818D03*
Y02743D03*
X02358Y02781D03*
X02021Y03247D03*
Y03172D03*
X02104Y03210D03*
Y02872D03*
Y02947D03*
X02021Y02910D03*
X02102Y03301D03*
Y03376D03*
X02019Y03339D03*
X02033Y02817D03*
Y02742D03*
X02116Y02780D03*
G54D39*
X03196Y03325D03*
X03263D03*
G54D40*
X02980Y02788D03*
Y02721D03*
X02933Y03316D03*
Y03383D03*
X02720Y02788D03*
Y02721D03*
X02675Y03316D03*
Y03383D03*
X02475Y02788D03*
Y02721D03*
X02417Y03316D03*
Y03383D03*
X02215Y02788D03*
Y02721D03*
X02160Y03316D03*
Y03383D03*
X01966Y02789D03*
Y02722D03*
G54D41*
X02572Y02315D03*
G54D42*
X02572Y02225D03*
Y02134D03*
G54D43*
X02837Y02225D03*
G54D44*
X02897Y02471D03*
Y02571D03*
X02797Y02471D03*
Y02571D03*
X02697Y02471D03*
Y02571D03*
X02597Y02471D03*
Y02571D03*
X02497Y02471D03*
X02502Y03633D03*
Y03533D03*
X02602Y03633D03*
Y03533D03*
X02702Y03633D03*
Y03533D03*
X02802Y03633D03*
Y03533D03*
X02902Y03633D03*
X02975Y03055D03*
X02775D03*
X02675D03*
X02575D03*
X02475D03*
X02375D03*
X02275D03*
X02175D03*
X02875D03*
X03325Y02931D03*
X03081Y03625D03*
X03278D03*
X02124Y03637D03*
X02321D03*
X03575Y03005D03*
G54D45*
X02497Y02571D03*
X02902Y03533D03*
X03075Y03055D03*
G54D46*
X03325Y03068D03*
X03575Y03105D03*
G54D47*
X03510Y03295D03*
X02269Y02470D03*
G54D48*
X03510Y03374D03*
G54D49*
X02190Y02470D03*
G54D50*
X02695Y03910D03*
X03445Y02611D03*
G54D51*
X02084Y02621D03*
X02028Y02666D03*
X01943Y03052D03*
X02419Y03258D03*
X02673D03*
X03184D03*
X02005Y03306D03*
X02260D03*
X02516D03*
X02768D03*
X03025D03*
X02151Y03258D03*
X02478Y02857D03*
X02985D03*
X02120Y02815D03*
X02380D03*
X02630D03*
X02880D03*
X03150D03*
X02220Y02855D03*
X02730D03*
X02720Y02685D03*
X02980Y02677D03*
X03005Y03579D03*
X03363Y03625D03*
X02132Y02571D03*
X02940Y02265D03*
X01965Y02860D03*
X02430Y03570D03*
X02928Y03258D03*
X01785Y02810D03*
X01970Y02470D03*
M02*