%FSDAX23Y23*%
%MOIN*%
%SFA1B1*%

%IPPOS*%
%ADD10R,0.059100X0.051200*%
%ADD12R,0.051200X0.023600*%
%ADD13R,0.043300X0.039400*%
%ADD14R,0.039400X0.043300*%
%ADD18C,0.019700*%
%ADD19C,0.023600*%
%ADD20C,0.039400*%
%ADD21C,0.059100*%
%ADD22R,0.059100X0.059100*%
%ADD23R,0.059100X0.059100*%
%ADD24C,0.053100*%
%ADD25R,0.053100X0.053100*%
%ADD26R,0.053100X0.053100*%
%ADD27C,0.060000*%
%ADD28C,0.050000*%
%ADD29R,0.063000X0.070900*%
%ADD30R,0.049200X0.066900*%
%ADD31O,0.086600X0.023600*%
%LNdriver-1*%
%LPD*%
G54D10*
X03390Y02967D03*
Y03042D03*
X03070Y03462D03*
Y03537D03*
X03355Y03182D03*
Y03257D03*
X03275Y03182D03*
Y03257D03*
X03440Y03322D03*
Y03247D03*
X03535Y03192D03*
Y03267D03*
X03245Y02992D03*
Y03067D03*
G54D12*
X03126Y03247D03*
Y03172D03*
X03043Y03210D03*
Y02872D03*
Y02947D03*
X03126Y02910D03*
X02869Y03247D03*
Y03172D03*
X02786Y03210D03*
Y02872D03*
Y02947D03*
X02869Y02910D03*
X02614Y03247D03*
Y03172D03*
X02531Y03210D03*
Y02872D03*
Y02947D03*
X02614Y02910D03*
X02359Y03247D03*
Y03172D03*
X02276Y03210D03*
Y02872D03*
Y02947D03*
X02359Y02910D03*
X02104Y03247D03*
Y03172D03*
X02021Y03210D03*
Y02872D03*
Y02947D03*
X02104Y02910D03*
G54D13*
X03127Y03304D03*
X03060D03*
X03041Y02817D03*
X03108D03*
X02870Y03303D03*
X02803D03*
X02782Y02817D03*
X02849D03*
X02614Y03303D03*
X02547D03*
X02530Y02816D03*
X02597D03*
X02359Y03303D03*
X02292D03*
X02275Y02817D03*
X02342D03*
X03456Y03105D03*
X03523D03*
X03461Y02965D03*
X03528D03*
X02106Y03303D03*
X02039D03*
X02023Y02817D03*
X02090D03*
G54D14*
X02996Y03234D03*
Y03301D03*
X03180Y02888D03*
Y02821D03*
X02738Y03233D03*
Y03300D03*
X02917Y02884D03*
Y02817D03*
X02484Y03236D03*
Y03303D03*
X02664Y02885D03*
Y02818D03*
X02228Y03234D03*
Y03301D03*
X02410Y02885D03*
Y02818D03*
X01974Y03235D03*
Y03302D03*
X02155Y02884D03*
Y02817D03*
G54D18*
X02247Y02571D02*
X02497D01*
X02196Y02520D02*
X02247Y02571D01*
X02980Y02407D02*
Y02677D01*
X02944Y02371D02*
X02980Y02407D01*
X02539Y02371D02*
X02944D01*
X02497Y02413D02*
X02539Y02371D01*
X02497Y02413D02*
Y02471D01*
X02597D02*
X02659Y02409D01*
X02806*
X02846Y02449*
X02897Y02571D02*
Y02616D01*
X02846Y02449D02*
Y02592D01*
X02754Y02685D02*
X02846Y02592D01*
X02720Y02685D02*
X02754D01*
X02080Y02520D02*
X02196D01*
X01880Y02720D02*
X02080Y02520D01*
X02550Y03554D02*
Y03575D01*
Y03554D02*
X02551Y03553D01*
Y03511D02*
Y03553D01*
X02550Y03509D02*
X02551Y03511D01*
X02550Y03475D02*
Y03509D01*
X01924Y03033D02*
X01943Y03052D01*
X01924Y02781D02*
Y02837D01*
X01920Y02841D02*
X01924Y02837D01*
X01920Y02841D02*
Y02878D01*
X01924Y02882*
Y03033*
X01945Y02760D02*
X02753D01*
X02897Y02616*
X01924Y02781D02*
X01945Y02760D01*
X01880Y02720D02*
Y03330D01*
X01960Y03410*
X02270*
X02430Y03570*
X01800Y03385D02*
X01835Y03420D01*
X01800Y03350D02*
Y03385D01*
X01780Y03330D02*
X01800Y03350D01*
X01780Y03285D02*
Y03330D01*
G54D19*
X02135Y02677D02*
X02591D01*
X02091Y02633D02*
X02135Y02677D01*
X02091Y02611D02*
Y02633D01*
X02028Y02663D02*
X02077Y02712D01*
X02028Y02663D02*
Y02666D01*
X02530Y02638D02*
X02597Y02571D01*
X02591Y02677D02*
X02697Y02571D01*
X02621Y02712D02*
X02705Y02628D01*
X02077Y02712D02*
X02621D01*
X02705Y02628D02*
X02740D01*
X02797Y02571*
X03565Y03370D02*
Y03435D01*
X03465Y03535D02*
X03565Y03435D01*
X03394Y03535D02*
X03465D01*
X02975Y03016D02*
Y03055D01*
Y03016D02*
X03043Y02947D01*
X03075Y03055D02*
Y03121D01*
X03126Y03172*
X02875Y03055D02*
Y03167D01*
X02869Y03172D02*
X02875Y03167D01*
X02775Y02959D02*
X02786Y02947D01*
X02775Y02959D02*
Y03055D01*
X02614Y03172D02*
X02675Y03112D01*
Y03055D02*
Y03112D01*
X02021Y02947D02*
X02140D01*
X02175Y02982*
Y03055*
X02276Y02947D02*
X02355D01*
X02375Y02967*
Y03055*
X02531Y02947D02*
X02575Y02990D01*
Y03055*
X02359Y03172D02*
X02430D01*
X02475Y03128*
Y03055D02*
Y03128D01*
X02129Y02910D02*
X02155Y02884D01*
X02359Y02910D02*
X02385D01*
X02410Y02885*
X02614Y02910D02*
X02639D01*
X02664Y02885*
X02869Y02910D02*
X02891D01*
X02917Y02884*
X03126Y02910D02*
X03165D01*
X01999Y03210D02*
X02021D01*
X01974Y03235D02*
X01999Y03210D01*
X02738Y03300D02*
X02801D01*
X02996Y03301D02*
X03058D01*
X02106Y03249D02*
Y03303D01*
X02104Y03247D02*
X02159D01*
X02359Y03247D02*
Y03303D01*
X02359Y03247D02*
X02417D01*
X02614Y03247D02*
Y03303D01*
X02614Y03247D02*
X02671D01*
X02870Y03248D02*
Y03303D01*
X02869Y03247D02*
X02926D01*
X03127Y03248D02*
Y03304D01*
X03126Y03247D02*
X03182D01*
X02104Y03172D02*
X02157D01*
X02275Y03055*
X02021Y03210D02*
X02276D01*
X02531*
X02786*
X02019Y02817D02*
Y02870D01*
X01960Y02872D02*
X02021D01*
X02275Y02817D02*
Y02871D01*
X02228Y02872D02*
X02276D01*
X02530Y02816D02*
Y02871D01*
X02488Y02872D02*
X02531D01*
X02782Y02817D02*
Y02868D01*
X02732Y02872D02*
X02786D01*
X03041Y02817D02*
Y02870D01*
X02992Y02872D02*
X03043D01*
X02104Y02910D02*
X02129D01*
X02614*
X02639D02*
X03126D01*
X03245Y03067D02*
X03323D01*
X03325Y03068*
X03245Y02992D02*
X03306Y02931D01*
X03325*
X03295Y03257D02*
X03375D01*
Y03365D02*
X03394Y03385D01*
X03523Y03105D02*
X03575D01*
X03535Y02965D02*
X03575Y03005D01*
X03392Y02965D02*
X03461D01*
X03325Y02931D02*
X03358D01*
X03325Y03068D02*
X03363D01*
X03393Y03042D02*
X03456Y03105D01*
X03325Y03068D02*
X03335Y03078D01*
X03367Y03190D02*
X03375Y03182D01*
X03275D02*
X03335D01*
X03355*
X03440Y03322D02*
X03492Y03374D01*
X03510*
Y03292D02*
Y03295D01*
X03440Y03235D02*
Y03247D01*
Y03235D02*
X03482Y03192D01*
X03592D02*
X03600Y03200D01*
Y03335*
X03565Y03370D02*
X03600Y03335D01*
X03482Y03192D02*
X03535D01*
X03592*
X03135Y03485D02*
X03205D01*
X03112Y03462D02*
X03135Y03485D01*
X03070Y03462D02*
X03112D01*
X03070Y03537D02*
X03203D01*
X03205Y03535*
X03081Y03625D02*
X03205D01*
X03285Y03545*
Y03455D02*
Y03545D01*
X03265Y03435D02*
X03285Y03455D01*
X03205Y03435D02*
X03265D01*
X03205Y03385D02*
X03394D01*
Y03435*
X03375Y03257D02*
Y03365D01*
X03340Y03485D02*
X03394D01*
X03325Y03500D02*
X03340Y03485D01*
X03325Y03500D02*
Y03590D01*
X03340Y03605*
X03270Y03740D02*
X03340Y03670D01*
X03039Y03666D02*
Y03805D01*
Y03666D02*
X03081Y03625D01*
X02900Y03805D02*
Y03855D01*
X02930Y03885*
X03085*
X03159Y03810*
Y03740D02*
Y03810D01*
X02900Y03789D02*
Y03805D01*
Y03789D02*
X02990Y03700D01*
Y03617D02*
Y03700D01*
X03043Y03210D02*
X03205D01*
X03232Y03182*
X03275*
X02786Y03210D02*
X03043D01*
X01920Y03245D02*
X01929Y03235D01*
X01974*
X03202Y03067D02*
X03245D01*
X02139Y02581D02*
X02196Y02638D01*
X02530*
X03358Y02931D02*
X03392Y02965D01*
X03335Y03078D02*
Y03182D01*
X03355Y03190D02*
X03367D01*
X03340Y03605D02*
Y03670D01*
X02344Y03375D02*
X02502Y03533D01*
X02990Y03617D02*
X03070Y03537D01*
X01920Y03320D02*
X01974Y03375D01*
X01920Y03245D02*
Y03320D01*
X01974Y03375D02*
X02344D01*
G54D20*
X03170Y03035D02*
X03202Y03067D01*
X03170Y02920D02*
Y03035D01*
X01840Y02695D02*
X02065Y02470D01*
X02190*
X02602Y03633D02*
Y03688D01*
X02540Y03750D02*
X02602Y03688D01*
X02502Y03633D02*
X02550Y03585D01*
Y03575D02*
Y03585D01*
Y03475D02*
X02590Y03435D01*
X02950*
X03005Y03490*
Y03579*
X01840Y02695D02*
Y03350D01*
X01960Y03470*
X02154D02*
X02321Y03637D01*
X01960Y03470D02*
X02154D01*
X02140Y03750D02*
X02540D01*
X01835Y03445D02*
X02140Y03750D01*
X01835Y03420D02*
Y03445D01*
X01780Y03285D02*
X01785Y03280D01*
Y02810D02*
Y03280D01*
X01970Y02470D02*
X02175Y02265D01*
X02940*
G54D21*
X02897Y02471D03*
Y02571D03*
X02797Y02471D03*
Y02571D03*
X02697Y02471D03*
Y02571D03*
X02597Y02471D03*
Y02571D03*
X02497Y02471D03*
X02502Y03633D03*
Y03533D03*
X02602Y03633D03*
Y03533D03*
X02702Y03633D03*
Y03533D03*
X02802Y03633D03*
Y03533D03*
X02902Y03633D03*
X02975Y03055D03*
X02775D03*
X02675D03*
X02575D03*
X02475D03*
X02375D03*
X02275D03*
X02175D03*
X02875D03*
X03325Y02931D03*
X03081Y03625D03*
X03278D03*
X02124Y03637D03*
X02321D03*
X03575Y03005D03*
G54D22*
X02497Y02571D03*
X02902Y03533D03*
X03075Y03055D03*
G54D23*
X03325Y03068D03*
X03575Y03105D03*
G54D24*
X03510Y03295D03*
X02269Y02470D03*
G54D25*
X03510Y03374D03*
G54D26*
X02190Y02470D03*
G54D27*
X02695Y03910D03*
X03445Y02611D03*
G54D28*
X02084Y02621D03*
X02028Y02666D03*
X01943Y03052D03*
X02419Y03258D03*
X02673D03*
X03184D03*
X02005Y03306D03*
X02260D03*
X02516D03*
X02768D03*
X03025D03*
X02151Y03258D03*
X02478Y02857D03*
X02985D03*
X02120Y02815D03*
X02380D03*
X02630D03*
X02880D03*
X03150D03*
X02220Y02855D03*
X02730D03*
X02720Y02685D03*
X02980Y02677D03*
X03005Y03579D03*
X03363Y03625D03*
X02132Y02571D03*
X02940Y02265D03*
X01965Y02860D03*
X02430Y03570D03*
X02928Y03258D03*
X01785Y02810D03*
X01970Y02470D03*
G54D29*
X03270Y03740D03*
X03159D03*
G54D30*
X03039Y03805D03*
X02900D03*
G54D31*
X03205Y03385D03*
Y03435D03*
Y03485D03*
Y03535D03*
X03394Y03385D03*
Y03435D03*
Y03485D03*
Y03535D03*
M02*