%FSDAX23Y23*%
%MOIN*%
%SFA1B1*%

%IPPOS*%
%ADD9500C,0.028000*%
%ADD9501C,0.031500*%
%ADD9502C,0.035400*%
%ADD9503C,0.157500*%
%LNdriver-1*%
%LPD*%
G54D9500*
X03150Y02815D03*
X02985Y02857D03*
X02880Y02815D03*
X02730Y02855D03*
X02630Y02815D03*
X02478Y02857D03*
X02380Y02815D03*
X02220Y02855D03*
X02120Y02815D03*
X01965Y02860D03*
X01943Y03052D03*
X01785Y02810D03*
X02028Y02666D03*
X02084Y02621D03*
X02132Y02571D03*
X01970Y02470D03*
X02720Y02685D03*
X02980Y02677D03*
X02940Y02265D03*
X02928Y03258D03*
X03025Y03306D03*
X02768D03*
X02673Y03258D03*
X02516Y03306D03*
X02419Y03258D03*
X02260Y03306D03*
X02151Y03258D03*
X02005Y03306D03*
X02430Y03570D03*
X03005Y03579D03*
X03363Y03625D03*
X03184Y03258D03*
G54D9501*
X02190Y02470D03*
X02269D03*
X03510Y03295D03*
Y03374D03*
G54D9502*
X03325Y02931D03*
Y03068D03*
X03575Y03105D03*
Y03005D03*
X03075Y03055D03*
X02975D03*
X02875D03*
X02775D03*
X02675D03*
X02575D03*
X02475D03*
X02375D03*
X02275D03*
X02175D03*
X02497Y02571D03*
X02597D03*
X02697D03*
X02797D03*
X02897D03*
Y02471D03*
X02797D03*
X02697D03*
X02597D03*
X02497D03*
X02502Y03533D03*
Y03633D03*
X02602D03*
Y03533D03*
X02702D03*
Y03633D03*
X02802D03*
Y03533D03*
X02902D03*
Y03633D03*
X03081Y03625D03*
X02321Y03637D03*
X02124D03*
X03278Y03625D03*
G54D9503*
X03445Y02611D03*
X02695Y03910D03*
M02*