%FSDAX23Y23*%
%MOIN*%
%SFA1B1*%

%IPPOS*%
%ADD35C,0.003900*%
%LNdriver-1*%
%LPD*%
G54D35*
X03161Y03141D02*
Y03278D01*
X03008Y03141D02*
Y03278D01*
X03161*
X03008Y03141D02*
X03161D01*
X03065Y03210D02*
X03104D01*
X03085Y03190D02*
Y03229D01*
X03008Y02841D02*
Y02978D01*
X03161Y02841D02*
Y02978D01*
X03008Y02841D02*
X03161D01*
X03008Y02978D02*
X03161D01*
X03065Y02910D02*
X03104D01*
X03085Y02890D02*
Y02929D01*
X02904Y03141D02*
Y03278D01*
X02751Y03141D02*
Y03278D01*
X02904*
X02751Y03141D02*
X02904D01*
X02808Y03210D02*
X02847D01*
X02828Y03190D02*
Y03229D01*
X02751Y02841D02*
Y02978D01*
X02904Y02841D02*
Y02978D01*
X02751Y02841D02*
X02904D01*
X02751Y02978D02*
X02904D01*
X02808Y02910D02*
X02847D01*
X02828Y02890D02*
Y02929D01*
X02649Y03141D02*
Y03278D01*
X02496Y03141D02*
Y03278D01*
X02649*
X02496Y03141D02*
X02649D01*
X02553Y03210D02*
X02592D01*
X02573Y03190D02*
Y03229D01*
X02496Y02841D02*
Y02978D01*
X02649Y02841D02*
Y02978D01*
X02496Y02841D02*
X02649D01*
X02496Y02978D02*
X02649D01*
X02553Y02910D02*
X02592D01*
X02573Y02890D02*
Y02929D01*
X02394Y03141D02*
Y03278D01*
X02241Y03141D02*
Y03278D01*
X02394*
X02241Y03141D02*
X02394D01*
X02298Y03210D02*
X02337D01*
X02318Y03190D02*
Y03229D01*
X02241Y02841D02*
Y02978D01*
X02394Y02841D02*
Y02978D01*
X02241Y02841D02*
X02394D01*
X02241Y02978D02*
X02394D01*
X02298Y02910D02*
X02337D01*
X02318Y02890D02*
Y02929D01*
X02139Y03141D02*
Y03278D01*
X01986Y03141D02*
Y03278D01*
X02139*
X01986Y03141D02*
X02139D01*
X02043Y03210D02*
X02082D01*
X02063Y03190D02*
Y03229D01*
X01986Y02841D02*
Y02978D01*
X02139Y02841D02*
Y02978D01*
X01986Y02841D02*
X02139D01*
X01986Y02978D02*
X02139D01*
X02043Y02910D02*
X02082D01*
X02063Y02890D02*
Y02929D01*
X03152Y03351D02*
Y03568D01*
X03447Y03351D02*
Y03568D01*
X03152Y03351D02*
X03447D01*
X03152Y03568D02*
X03447D01*
X03280Y03460D02*
X03319D01*
X03300Y03440D02*
Y03479D01*
X03008Y03141D02*
Y03278D01*
X03161Y03141D02*
Y03278D01*
X03008D02*
X03161D01*
X03008Y03141D02*
X03161D01*
X03065Y03210D02*
X03104D01*
X03085Y03190D02*
Y03229D01*
X03161Y02841D02*
Y02978D01*
X03008Y02841D02*
Y02978D01*
Y02841D02*
X03161D01*
X03008Y02978D02*
X03161D01*
X03065Y02910D02*
X03104D01*
X03085Y02890D02*
Y02929D01*
X03161Y03271D02*
Y03408D01*
X03008Y03271D02*
Y03408D01*
Y03271D02*
X03161D01*
X03008Y03408D02*
X03161D01*
X03065Y03340D02*
X03104D01*
X03085Y03320D02*
Y03359D01*
X03008Y02712D02*
Y02849D01*
X03161Y02712D02*
Y02849D01*
X03008D02*
X03161D01*
X03008Y02712D02*
X03161D01*
X03065Y02781D02*
X03104D01*
X03085Y02761D02*
Y02800D01*
X02751Y03141D02*
Y03278D01*
X02904Y03141D02*
Y03278D01*
X02751D02*
X02904D01*
X02751Y03141D02*
X02904D01*
X02808Y03210D02*
X02847D01*
X02828Y03190D02*
Y03229D01*
X02904Y02841D02*
Y02978D01*
X02751Y02841D02*
Y02978D01*
Y02841D02*
X02904D01*
X02751Y02978D02*
X02904D01*
X02808Y02910D02*
X02847D01*
X02828Y02890D02*
Y02929D01*
X02905Y03271D02*
Y03408D01*
X02752Y03271D02*
Y03408D01*
Y03271D02*
X02905D01*
X02752Y03408D02*
X02905D01*
X02809Y03340D02*
X02848D01*
X02829Y03320D02*
Y03359D01*
X02751Y02712D02*
Y02849D01*
X02904Y02712D02*
Y02849D01*
X02751D02*
X02904D01*
X02751Y02712D02*
X02904D01*
X02808Y02781D02*
X02847D01*
X02828Y02761D02*
Y02800D01*
X02496Y03141D02*
Y03278D01*
X02649Y03141D02*
Y03278D01*
X02496D02*
X02649D01*
X02496Y03141D02*
X02649D01*
X02553Y03210D02*
X02592D01*
X02573Y03190D02*
Y03229D01*
X02649Y02841D02*
Y02978D01*
X02496Y02841D02*
Y02978D01*
Y02841D02*
X02649D01*
X02496Y02978D02*
X02649D01*
X02553Y02910D02*
X02592D01*
X02573Y02890D02*
Y02929D01*
X02648Y03270D02*
Y03407D01*
X02495Y03270D02*
Y03407D01*
Y03270D02*
X02648D01*
X02495Y03407D02*
X02648D01*
X02552Y03339D02*
X02591D01*
X02572Y03319D02*
Y03358D01*
X02497Y02712D02*
Y02849D01*
X02650Y02712D02*
Y02849D01*
X02497D02*
X02650D01*
X02497Y02712D02*
X02650D01*
X02554Y02781D02*
X02593D01*
X02574Y02761D02*
Y02800D01*
X02241Y03141D02*
Y03278D01*
X02394Y03141D02*
Y03278D01*
X02241D02*
X02394D01*
X02241Y03141D02*
X02394D01*
X02298Y03210D02*
X02337D01*
X02318Y03190D02*
Y03229D01*
X02394Y02841D02*
Y02978D01*
X02241Y02841D02*
Y02978D01*
Y02841D02*
X02394D01*
X02241Y02978D02*
X02394D01*
X02298Y02910D02*
X02337D01*
X02318Y02890D02*
Y02929D01*
X02392Y03270D02*
Y03407D01*
X02239Y03270D02*
Y03407D01*
Y03270D02*
X02392D01*
X02239Y03407D02*
X02392D01*
X02296Y03339D02*
X02335D01*
X02316Y03319D02*
Y03358D01*
X02240Y02712D02*
Y02849D01*
X02393Y02712D02*
Y02849D01*
X02240D02*
X02393D01*
X02240Y02712D02*
X02393D01*
X02297Y02781D02*
X02336D01*
X02317Y02761D02*
Y02800D01*
X01986Y03141D02*
Y03278D01*
X02139Y03141D02*
Y03278D01*
X01986D02*
X02139D01*
X01986Y03141D02*
X02139D01*
X02043Y03210D02*
X02082D01*
X02063Y03190D02*
Y03229D01*
X02139Y02841D02*
Y02978D01*
X01986Y02841D02*
Y02978D01*
Y02841D02*
X02139D01*
X01986Y02978D02*
X02139D01*
X02043Y02910D02*
X02082D01*
X02063Y02890D02*
Y02929D01*
X02137Y03270D02*
Y03407D01*
X01984Y03270D02*
Y03407D01*
Y03270D02*
X02137D01*
X01984Y03407D02*
X02137D01*
X02041Y03339D02*
X02080D01*
X02061Y03319D02*
Y03358D01*
X01998Y02711D02*
Y02848D01*
X02151Y02711D02*
Y02848D01*
X01998D02*
X02151D01*
X01998Y02711D02*
X02151D01*
X02055Y02780D02*
X02094D01*
X02075Y02760D02*
Y02799D01*
M02*