%FSDAX23Y23*%
%MOIN*%
%SFA1B1*%

%IPPOS*%
%ADD36R,0.067100X0.059200*%
%ADD38R,0.059200X0.031600*%
%ADD39R,0.051300X0.047400*%
%ADD40R,0.047400X0.051300*%
%ADD44C,0.067100*%
%ADD45R,0.067100X0.067100*%
%ADD46R,0.067100X0.067100*%
%ADD47C,0.061100*%
%ADD48R,0.061100X0.061100*%
%ADD49R,0.061100X0.061100*%
%ADD50C,0.068000*%
%ADD51C,0.058000*%
%ADD52R,0.071000X0.078900*%
%ADD53R,0.057200X0.074900*%
%ADD54O,0.094600X0.031600*%
%LNdriver-1*%
%LPD*%
G54D36*
X03390Y02967D03*
Y03042D03*
X03070Y03462D03*
Y03537D03*
X03355Y03182D03*
Y03257D03*
X03275Y03182D03*
Y03257D03*
X03440Y03322D03*
Y03247D03*
X03535Y03192D03*
Y03267D03*
X03245Y02992D03*
Y03067D03*
G54D38*
X03126Y03247D03*
Y03172D03*
X03043Y03210D03*
Y02872D03*
Y02947D03*
X03126Y02910D03*
X02869Y03247D03*
Y03172D03*
X02786Y03210D03*
Y02872D03*
Y02947D03*
X02869Y02910D03*
X02614Y03247D03*
Y03172D03*
X02531Y03210D03*
Y02872D03*
Y02947D03*
X02614Y02910D03*
X02359Y03247D03*
Y03172D03*
X02276Y03210D03*
Y02872D03*
Y02947D03*
X02359Y02910D03*
X02104Y03247D03*
Y03172D03*
X02021Y03210D03*
Y02872D03*
Y02947D03*
X02104Y02910D03*
G54D39*
X03127Y03304D03*
X03060D03*
X03041Y02817D03*
X03108D03*
X02870Y03303D03*
X02803D03*
X02782Y02817D03*
X02849D03*
X02614Y03303D03*
X02547D03*
X02530Y02816D03*
X02597D03*
X02359Y03303D03*
X02292D03*
X02275Y02817D03*
X02342D03*
X03456Y03105D03*
X03523D03*
X03461Y02965D03*
X03528D03*
X02106Y03303D03*
X02039D03*
X02023Y02817D03*
X02090D03*
G54D40*
X02996Y03234D03*
Y03301D03*
X03180Y02888D03*
Y02821D03*
X02738Y03233D03*
Y03300D03*
X02917Y02884D03*
Y02817D03*
X02484Y03236D03*
Y03303D03*
X02664Y02885D03*
Y02818D03*
X02228Y03234D03*
Y03301D03*
X02410Y02885D03*
Y02818D03*
X01974Y03235D03*
Y03302D03*
X02155Y02884D03*
Y02817D03*
G54D44*
X02897Y02471D03*
Y02571D03*
X02797Y02471D03*
Y02571D03*
X02697Y02471D03*
Y02571D03*
X02597Y02471D03*
Y02571D03*
X02497Y02471D03*
X02502Y03633D03*
Y03533D03*
X02602Y03633D03*
Y03533D03*
X02702Y03633D03*
Y03533D03*
X02802Y03633D03*
Y03533D03*
X02902Y03633D03*
X02975Y03055D03*
X02775D03*
X02675D03*
X02575D03*
X02475D03*
X02375D03*
X02275D03*
X02175D03*
X02875D03*
X03325Y02931D03*
X03081Y03625D03*
X03278D03*
X02124Y03637D03*
X02321D03*
X03575Y03005D03*
G54D45*
X02497Y02571D03*
X02902Y03533D03*
X03075Y03055D03*
G54D46*
X03325Y03068D03*
X03575Y03105D03*
G54D47*
X03510Y03295D03*
X02269Y02470D03*
G54D48*
X03510Y03374D03*
G54D49*
X02190Y02470D03*
G54D50*
X02695Y03910D03*
X03445Y02611D03*
G54D51*
X02084Y02621D03*
X02028Y02666D03*
X01943Y03052D03*
X02419Y03258D03*
X02673D03*
X03184D03*
X02005Y03306D03*
X02260D03*
X02516D03*
X02768D03*
X03025D03*
X02151Y03258D03*
X02478Y02857D03*
X02985D03*
X02120Y02815D03*
X02380D03*
X02630D03*
X02880D03*
X03150D03*
X02220Y02855D03*
X02730D03*
X02720Y02685D03*
X02980Y02677D03*
X03005Y03579D03*
X03363Y03625D03*
X02132Y02571D03*
X02940Y02265D03*
X01965Y02860D03*
X02430Y03570D03*
X02928Y03258D03*
X01785Y02810D03*
X01970Y02470D03*
G54D52*
X03270Y03740D03*
X03159D03*
G54D53*
X03039Y03805D03*
X02900D03*
G54D54*
X03205Y03385D03*
Y03435D03*
Y03485D03*
Y03535D03*
X03394Y03385D03*
Y03435D03*
Y03485D03*
Y03535D03*
M02*