%FSDAX23Y23*%
%MOIN*%
%SFA1B1*%

%IPPOS*%
%ADD11R,0.043300X0.039400*%
%ADD18C,0.060000*%
%ADD19R,0.059100X0.059100*%
%ADD20C,0.059100*%
%ADD21R,0.059100X0.059100*%
%ADD22R,0.049200X0.049200*%
%ADD23C,0.049200*%
%ADD25O,0.090600X0.023600*%
%LNsensor_pcb-1*%
%LPD*%
G54D11*
X02783Y03070D03*
X02716D03*
G54D18*
X02594Y03076D03*
Y02957D03*
X02312Y02643D03*
X03811D03*
X03061Y03942D03*
G54D19*
X02650Y02740D03*
G54D20*
X02650Y02640D03*
X02868Y03665D03*
Y03565D03*
X02968Y03665D03*
Y03565D03*
X03068Y03665D03*
Y03565D03*
X03168Y03665D03*
Y03565D03*
X03268Y03665D03*
X03263Y02503D03*
Y02603D03*
X03163Y02503D03*
Y02603D03*
X03063Y02503D03*
Y02603D03*
X02963Y02503D03*
Y02603D03*
X02863Y02503D03*
X03308Y02305D03*
X03208D03*
X03108D03*
X03008D03*
X02908D03*
G54D21*
X03268Y03565D03*
X02863Y02603D03*
X02808Y02305D03*
G54D22*
X03470Y03010D03*
X03470Y03290D03*
G54D23*
X03569Y03010D03*
Y03290D03*
G54D25*
X02890Y02775D03*
Y02825D03*
Y02875D03*
Y02925D03*
Y02975D03*
Y03025D03*
Y03075D03*
Y03125D03*
Y03175D03*
Y03225D03*
Y03275D03*
Y03325D03*
Y03375D03*
Y03425D03*
X03249Y02775D03*
Y02825D03*
Y02875D03*
Y02925D03*
Y02975D03*
Y03025D03*
Y03075D03*
Y03125D03*
Y03175D03*
Y03225D03*
Y03275D03*
Y03325D03*
Y03375D03*
Y03425D03*
M02*