%FSDAX23Y23*%
%MOIN*%
%SFA1B1*%

%IPPOS*%
%ADD30R,0.051300X0.047400*%
%ADD33C,0.068000*%
%ADD34R,0.067100X0.067100*%
%ADD35C,0.067100*%
%ADD36R,0.067100X0.067100*%
%ADD37R,0.057200X0.057200*%
%ADD38C,0.057200*%
%ADD39C,0.058000*%
%ADD40O,0.098600X0.031600*%
%LNsensor_pcb-1*%
%LPD*%
G54D30*
X02783Y03070D03*
X02716D03*
G54D33*
X02594Y03076D03*
Y02957D03*
X02312Y02643D03*
X03811D03*
X03061Y03942D03*
G54D34*
X02650Y02740D03*
G54D35*
X02650Y02640D03*
X02868Y03665D03*
Y03565D03*
X02968Y03665D03*
Y03565D03*
X03068Y03665D03*
Y03565D03*
X03168Y03665D03*
Y03565D03*
X03268Y03665D03*
X03263Y02503D03*
Y02603D03*
X03163Y02503D03*
Y02603D03*
X03063Y02503D03*
Y02603D03*
X02963Y02503D03*
Y02603D03*
X02863Y02503D03*
X03308Y02305D03*
X03208D03*
X03108D03*
X03008D03*
X02908D03*
G54D36*
X03268Y03565D03*
X02863Y02603D03*
X02808Y02305D03*
G54D37*
X03470Y03010D03*
X03470Y03290D03*
G54D38*
X03569Y03010D03*
Y03290D03*
G54D39*
X02760Y02760D03*
X02725Y03130D03*
X02812Y03271D03*
X02811Y03374D03*
X02776Y03322D03*
Y03425D03*
X03338D03*
G54D40*
X02890Y02775D03*
Y02825D03*
Y02875D03*
Y02925D03*
Y02975D03*
Y03025D03*
Y03075D03*
Y03125D03*
Y03175D03*
Y03225D03*
Y03275D03*
Y03325D03*
Y03375D03*
Y03425D03*
X03249Y02775D03*
Y02825D03*
Y02875D03*
Y02925D03*
Y02975D03*
Y03025D03*
Y03075D03*
Y03125D03*
Y03175D03*
Y03225D03*
Y03275D03*
Y03325D03*
Y03375D03*
Y03425D03*
M02*