%FSDAX23Y23*%
%MOIN*%
%SFA1B1*%

%IPPOS*%
%ADD11R,0.043300X0.039400*%
%ADD15C,0.019700*%
%ADD18C,0.060000*%
%ADD19R,0.059100X0.059100*%
%ADD20C,0.059100*%
%ADD21R,0.059100X0.059100*%
%ADD22R,0.049200X0.049200*%
%ADD23C,0.049200*%
%ADD24C,0.050000*%
%ADD25O,0.090600X0.023600*%
%LNsensor_pcb-1*%
%LPD*%
G36*
X03250Y04040D02*
X03437Y03986D01*
X03620Y03887*
X03757Y03773*
X03853Y03660*
X03959Y03480*
X04029Y03254*
X04044Y03017*
X04017Y02841*
X03930Y02610*
X03810Y02440*
X03668Y02301*
X03435Y02165*
X03238Y02108*
X03061Y02092*
X02883Y02108*
X02665Y02175*
X02431Y02320*
X02250Y02517*
X02140Y02727*
X02088Y02928*
X02078Y03136*
X02130Y03397*
X02250Y03636*
X02431Y03832*
X02603Y03948*
X02825Y04032*
X03061Y04061*
X03250Y04040*
G37*
%LNsensor_pcb-2*%
%LPC*%
G36*
X02689Y02779D02*
X02610D01*
Y02700*
X02689*
Y02779*
G37*
G36*
X02650Y02680D02*
X02634Y02677D01*
X02621Y02668*
X02612Y02655*
X02609Y02640*
X02612Y02624*
X02621Y02611*
X02634Y02602*
X02650Y02599*
X02665Y02602*
X02678Y02611*
X02687Y02624*
X02690Y02640*
X02687Y02655*
X02678Y02668*
X02665Y02677*
X02650Y02680*
G37*
G36*
X03811Y02733D02*
X03788Y02730D01*
X03766Y02721*
X03747Y02707*
X03733Y02688*
X03724Y02666*
X03721Y02643*
X03724Y02620*
X03733Y02598*
X03747Y02580*
X03766Y02566*
X03788Y02557*
X03811Y02554*
X03834Y02557*
X03856Y02566*
X03874Y02580*
X03888Y02598*
X03897Y02620*
X03900Y02643*
X03897Y02666*
X03888Y02688*
X03874Y02707*
X03856Y02721*
X03834Y02730*
X03811Y02733*
G37*
G36*
X03564Y03005D02*
X03534D01*
X03536Y02996*
X03544Y02985*
X03555Y02977*
X03564Y02975*
Y03005*
G37*
G36*
X03505Y03044D02*
X03436D01*
Y02975*
X03505*
Y03044*
G37*
G36*
X02755Y02794D02*
X02746Y02793D01*
X02734Y02785*
X02727Y02773*
X02725Y02765*
X02755*
Y02794*
G37*
G36*
X02312Y02733D02*
X02288Y02730D01*
X02267Y02721*
X02248Y02707*
X02234Y02688*
X02225Y02666*
X02222Y02643*
X02225Y02620*
X02234Y02598*
X02248Y02580*
X02267Y02566*
X02288Y02557*
X02312Y02554*
X02335Y02557*
X02356Y02566*
X02375Y02580*
X02389Y02598*
X02398Y02620*
X02401Y02643*
X02398Y02666*
X02389Y02688*
X02375Y02707*
X02356Y02721*
X02335Y02730*
X02312Y02733*
G37*
G36*
X03003Y02300D02*
X02968D01*
X02970Y02289*
X02979Y02276*
X02992Y02267*
X03003Y02265*
Y02300*
G37*
G36*
X03308Y02345D02*
X03292Y02342D01*
X03279Y02333*
X03270Y02320*
X03267Y02305*
X03270Y02289*
X03279Y02276*
X03292Y02267*
X03308Y02264*
X03323Y02267*
X03336Y02276*
X03345Y02289*
X03348Y02305*
X03345Y02320*
X03336Y02333*
X03323Y02342*
X03308Y02345*
G37*
G36*
X02908D02*
X02892Y02342D01*
X02879Y02333*
X02870Y02320*
X02867Y02305*
X02870Y02289*
X02879Y02276*
X02892Y02267*
X02908Y02264*
X02923Y02267*
X02936Y02276*
X02945Y02289*
X02948Y02305*
X02945Y02320*
X02936Y02333*
X02923Y02342*
X02908Y02345*
G37*
G36*
X03013Y02344D02*
Y02310D01*
X03047*
X03045Y02320*
X03036Y02333*
X03023Y02342*
X03013Y02344*
G37*
G36*
X03003D02*
X02992Y02342D01*
X02979Y02333*
X02970Y02320*
X02968Y02310*
X03003*
Y02344*
G37*
G36*
X03047Y02300D02*
X03013D01*
Y02265*
X03023Y02267*
X03036Y02276*
X03045Y02289*
X03047Y02300*
G37*
G36*
X03603Y03005D02*
X03574D01*
Y02975*
X03582Y02977*
X03594Y02985*
X03601Y02996*
X03603Y03005*
G37*
G36*
X03307Y03604D02*
X03228D01*
Y03525*
X03307*
Y03604*
G37*
G36*
X03574Y03324D02*
Y03295D01*
X03603*
X03601Y03303*
X03594Y03314*
X03582Y03322*
X03574Y03324*
G37*
G36*
X03564D02*
X03555Y03322D01*
X03544Y03314*
X03536Y03303*
X03534Y03295*
X03564*
Y03324*
G37*
G36*
X02863Y03660D02*
X02828D01*
X02830Y03649*
X02839Y03636*
X02852Y03627*
X02863Y03625*
Y03660*
G37*
G36*
X03061Y04032D02*
X03037Y04029D01*
X03016Y04020*
X02997Y04006*
X02983Y03987*
X02974Y03966*
X02971Y03942*
X02974Y03919*
X02983Y03898*
X02997Y03879*
X03016Y03865*
X03037Y03856*
X03061Y03853*
X03084Y03856*
X03105Y03865*
X03124Y03879*
X03138Y03898*
X03147Y03919*
X03150Y03942*
X03147Y03966*
X03138Y03987*
X03124Y04006*
X03105Y04020*
X03084Y04029*
X03061Y04032*
G37*
G36*
X03188Y03734D02*
X02947D01*
X02939Y03733*
X02933Y03728*
X02904Y03699*
X02903Y03697*
X02896Y03693*
X02883Y03702*
X02873Y03704*
Y03665*
Y03625*
X02883Y03627*
X02891Y03633*
X02898Y03629*
Y03600*
X02891Y03596*
X02883Y03602*
X02868Y03605*
X02852Y03602*
X02839Y03593*
X02830Y03580*
X02827Y03565*
X02830Y03549*
X02839Y03536*
X02852Y03527*
X02868Y03524*
X02883Y03527*
X02891Y03533*
X02894Y03531*
X02895Y03523*
X02861Y03490*
X02704*
X02697Y03488*
X02690Y03484*
X02520Y03314*
X02516Y03307*
X02514Y03300*
Y03045*
X02516Y03037*
X02520Y03030*
X02550Y03000*
X02557Y02996*
X02564Y02994*
X02565Y02987*
X02565Y02986*
X02556Y02973*
X02553Y02957*
X02556Y02942*
X02565Y02929*
X02578Y02920*
X02594Y02917*
X02609Y02920*
X02622Y02929*
X02631Y02942*
X02634Y02957*
X02631Y02973*
X02622Y02986*
X02622Y02987*
X02624Y02994*
X02641*
X02825Y02810*
X02832Y02806*
X02840Y02804*
X02848*
X02848Y02804*
X02851Y02803*
Y02796*
X02848Y02795*
X02847Y02794*
X02842Y02793*
X02835Y02789*
X02802Y02756*
X02795Y02759*
Y02760*
X02793Y02773*
X02785Y02785*
X02773Y02793*
X02765Y02794*
Y02760*
X02760*
Y02755*
X02725*
X02727Y02746*
X02734Y02734*
X02746Y02727*
X02760Y02724*
X02760*
X02763Y02717*
X02738Y02692*
X02734Y02685*
X02732Y02678*
Y02360*
X02734Y02352*
X02738Y02345*
X02768Y02315*
Y02265*
X02847*
Y02344*
X02797*
X02773Y02368*
Y02519*
X02775Y02520*
X02780Y02522*
X02814Y02488*
X02821Y02484*
X02829Y02482*
X02834Y02474*
X02847Y02465*
X02863Y02462*
X02878Y02465*
X02891Y02474*
X02900Y02487*
X02903Y02503*
X02900Y02518*
X02891Y02531*
X02878Y02540*
X02863Y02543*
X02847Y02540*
X02834Y02531*
X02829Y02531*
X02814Y02546*
Y02658*
X02825Y02669*
X02889*
X02892Y02662*
X02872Y02642*
X02823*
Y02563*
X02902*
Y02614*
X02940Y02652*
X02946Y02647*
X02944Y02644*
X02942Y02637*
X02934Y02631*
X02925Y02618*
X02922Y02603*
X02925Y02587*
X02934Y02574*
X02947Y02565*
X02963Y02562*
X02978Y02565*
X02985Y02570*
X02989Y02568*
X02990Y02560*
X02971Y02541*
X02963Y02543*
X02947Y02540*
X02934Y02531*
X02925Y02518*
X02922Y02503*
X02925Y02487*
X02934Y02474*
X02947Y02465*
X02963Y02462*
X02978Y02465*
X02991Y02474*
X03000Y02487*
X03003Y02503*
X03001Y02513*
X03026Y02539*
X03031Y02545*
X03032Y02553*
Y02567*
X03039Y02571*
X03047Y02565*
X03063Y02562*
X03078Y02565*
X03085Y02570*
X03090Y02567*
X03091Y02559*
X03072Y02541*
X03063Y02543*
X03047Y02540*
X03034Y02531*
X03025Y02518*
X03022Y02503*
X03025Y02487*
X03034Y02474*
X03047Y02465*
X03063Y02462*
X03078Y02465*
X03091Y02474*
X03100Y02487*
X03103Y02503*
X03101Y02512*
X03126Y02538*
X03131Y02544*
X03132Y02552*
Y02567*
X03139Y02571*
X03147Y02565*
X03158Y02563*
X03160Y02556*
X03148Y02544*
X03144Y02538*
X03134Y02531*
X03125Y02518*
X03122Y02503*
X03125Y02487*
X03134Y02474*
X03147Y02465*
X03163Y02462*
X03178Y02465*
X03191Y02474*
X03200Y02487*
X03203Y02503*
X03200Y02518*
X03192Y02530*
X03226Y02565*
X03231Y02571*
X03242Y02569*
X03247Y02565*
X03263Y02562*
X03278Y02565*
X03291Y02574*
X03297Y02583*
X03305Y02581*
Y02524*
X03297Y02522*
X03291Y02531*
X03278Y02540*
X03263Y02543*
X03247Y02540*
X03234Y02531*
X03225Y02518*
X03222Y02503*
X03225Y02487*
X03234Y02474*
X03247Y02465*
X03263Y02462*
X03278Y02465*
X03291Y02474*
X03297Y02483*
X03305Y02481*
Y02472*
X03254Y02422*
X03161*
X03153Y02420*
X03146Y02416*
X03093Y02363*
X03089Y02356*
X03087Y02349*
Y02339*
X03079Y02333*
X03070Y02320*
X03067Y02305*
X03070Y02289*
X03079Y02276*
X03092Y02267*
X03108Y02264*
X03123Y02267*
X03136Y02276*
X03145Y02289*
X03148Y02305*
X03145Y02320*
X03136Y02333*
X03132Y02336*
X03131Y02344*
X03169Y02381*
X03245*
X03248Y02374*
X03217Y02343*
X03208Y02345*
X03192Y02342*
X03179Y02333*
X03170Y02320*
X03167Y02305*
X03170Y02289*
X03179Y02276*
X03192Y02267*
X03208Y02264*
X03223Y02267*
X03236Y02276*
X03245Y02289*
X03248Y02305*
X03246Y02314*
X03369Y02437*
X03373Y02444*
X03375Y02452*
Y02806*
X03373Y02813*
X03369Y02820*
X03350Y02839*
X03343Y02843*
X03336Y02845*
X03291*
X03291Y02845*
X03288Y02846*
Y02853*
X03291Y02854*
X03298Y02859*
X03303Y02866*
X03304Y02875*
X03303Y02883*
X03298Y02890*
X03291Y02895*
X03288Y02896*
Y02903*
X03291Y02904*
X03298Y02909*
X03303Y02916*
X03304Y02925*
X03303Y02933*
X03298Y02940*
X03291Y02945*
X03288Y02946*
Y02953*
X03291Y02954*
X03298Y02959*
X03303Y02966*
X03304Y02975*
X03303Y02983*
X03298Y02990*
X03291Y02995*
X03288Y02996*
Y03003*
X03291Y03004*
X03298Y03009*
X03303Y03016*
X03304Y03025*
X03303Y03033*
X03298Y03040*
X03291Y03045*
X03288Y03046*
Y03053*
X03291Y03054*
X03298Y03059*
X03303Y03066*
X03304Y03075*
X03303Y03083*
X03298Y03090*
X03291Y03095*
X03288Y03096*
Y03103*
X03291Y03104*
X03298Y03109*
X03303Y03116*
X03304Y03125*
X03303Y03133*
X03298Y03140*
X03291Y03145*
X03288Y03146*
Y03153*
X03291Y03154*
X03291Y03154*
X03420*
X03427Y03156*
X03434Y03160*
X03485Y03211*
X03489Y03218*
X03491Y03225*
Y03255*
X03505*
Y03324*
X03436*
Y03255*
X03450*
Y03234*
X03411Y03195*
X03291*
X03291Y03195*
X03288Y03196*
Y03203*
X03291Y03204*
X03298Y03209*
X03303Y03216*
X03303Y03220*
X03194*
X03195Y03216*
X03199Y03209*
X03207Y03204*
X03209Y03203*
Y03196*
X03207Y03195*
X03206Y03195*
X03193*
X03037Y03351*
Y03529*
X03041Y03531*
X03047Y03527*
Y03392*
X03049Y03384*
X03053Y03377*
X03170Y03260*
X03175Y03257*
X03177Y03256*
X03185Y03254*
X03206*
X03207Y03254*
X03209Y03253*
Y03246*
X03207Y03245*
X03199Y03240*
X03195Y03233*
X03194Y03230*
X03303*
X03303Y03233*
X03298Y03240*
X03291Y03245*
X03288Y03246*
Y03253*
X03291Y03254*
X03298Y03259*
X03303Y03266*
X03304Y03275*
X03303Y03283*
X03298Y03290*
X03291Y03295*
X03288Y03296*
Y03303*
X03291Y03304*
X03298Y03309*
X03303Y03316*
X03304Y03325*
X03303Y03333*
X03298Y03340*
X03291Y03345*
X03288Y03346*
Y03353*
X03291Y03354*
X03298Y03359*
X03303Y03366*
X03304Y03375*
X03303Y03383*
X03298Y03390*
X03291Y03395*
X03288Y03396*
Y03403*
X03291Y03404*
X03291Y03404*
X03309*
X03312Y03399*
X03324Y03392*
X03338Y03389*
X03351Y03392*
X03363Y03399*
X03371Y03411*
X03373Y03425*
X03371Y03438*
X03363Y03450*
X03351Y03458*
X03338Y03460*
X03324Y03458*
X03312Y03450*
X03309Y03445*
X03291*
X03291Y03445*
X03282Y03447*
X03215*
X03207Y03445*
X03199Y03440*
X03195Y03433*
X03193Y03425*
X03195Y03416*
X03199Y03409*
X03207Y03404*
X03209Y03403*
Y03396*
X03207Y03395*
X03199Y03390*
X03195Y03383*
X03193Y03375*
X03195Y03366*
X03199Y03359*
X03207Y03354*
X03209Y03353*
Y03346*
X03207Y03345*
X03206Y03345*
X03199*
X03138Y03405*
Y03528*
X03145Y03532*
X03152Y03527*
X03168Y03524*
X03183Y03527*
X03196Y03536*
X03205Y03549*
X03208Y03565*
X03205Y03580*
X03196Y03593*
X03183Y03602*
X03168Y03605*
X03152Y03602*
X03145Y03597*
X03138Y03601*
Y03614*
X03137Y03622*
X03132Y03628*
X03106Y03655*
X03108Y03665*
X03105Y03680*
X03100Y03687*
X03104Y03694*
X03131*
X03135Y03687*
X03130Y03680*
X03127Y03665*
X03130Y03649*
X03139Y03636*
X03152Y03627*
X03168Y03624*
X03183Y03627*
X03196Y03636*
X03205Y03649*
X03206Y03657*
X03214Y03659*
X03223Y03650*
X03230Y03646*
X03233Y03645*
X03239Y03636*
X03252Y03627*
X03268Y03624*
X03283Y03627*
X03296Y03636*
X03305Y03649*
X03308Y03665*
X03305Y03680*
X03296Y03693*
X03283Y03702*
X03268Y03705*
X03252Y03702*
X03239Y03693*
X03238Y03693*
X03202Y03728*
X03196Y03733*
X03188Y03734*
G37*
G36*
X02863Y03704D02*
X02852Y03702D01*
X02839Y03693*
X02830Y03680*
X02828Y03670*
X02863*
Y03704*
G37*
G36*
X03564Y03044D02*
X03555Y03042D01*
X03544Y03035*
X03536Y03023*
X03534Y03015*
X03564*
Y03044*
G37*
G36*
X03574D02*
Y03015D01*
X03603*
X03601Y03023*
X03594Y03035*
X03582Y03042*
X03574Y03044*
G37*
G36*
X03603Y03285D02*
X03574D01*
Y03255*
X03582Y03257*
X03594Y03265*
X03601Y03276*
X03603Y03285*
G37*
G36*
X03564D02*
X03534D01*
X03536Y03276*
X03544Y03265*
X03555Y03257*
X03564Y03255*
Y03285*
G37*
%LNsensor_pcb-3*%
%LPD*%
G36*
X02745Y03442D02*
X02743Y03438D01*
X02740Y03425*
X02743Y03411*
X02750Y03399*
X02762Y03392*
X02772Y03389*
X02777Y03383*
X02775Y03374*
X02777Y03363*
X02773Y03357*
X02762Y03355*
X02750Y03347*
X02743Y03335*
X02740Y03322*
X02743Y03308*
X02750Y03296*
X02762Y03289*
X02773Y03286*
X02776Y03282*
X02777Y03277*
X02776Y03271*
X02779Y03257*
X02786Y03245*
X02798Y03238*
X02812Y03235*
X02825Y03238*
X02834Y03244*
X02840Y03238*
X02836Y03233*
X02835Y03225*
X02836Y03216*
X02841Y03209*
X02848Y03204*
X02851Y03203*
Y03196*
X02848Y03195*
X02841Y03190*
X02836Y03183*
X02835Y03175*
X02836Y03166*
X02841Y03159*
X02848Y03154*
X02851Y03153*
Y03146*
X02848Y03145*
X02841Y03140*
X02836Y03133*
X02836Y03130*
X02890*
Y03120*
X02836*
X02836Y03116*
X02841Y03109*
X02848Y03104*
X02851Y03103*
Y03096*
X02848Y03095*
X02848Y03095*
X02815*
Y03099*
X02755*
X02751Y03106*
X02758Y03116*
X02759Y03125*
X02690*
X02692Y03116*
X02698Y03106*
X02694Y03099*
X02684*
Y03096*
X02628*
X02622Y03104*
X02609Y03113*
X02594Y03116*
X02578Y03113*
X02565Y03104*
X02562Y03101*
X02555Y03103*
Y03291*
X02713Y03449*
X02742*
X02745Y03442*
G37*
%LNsensor_pcb-4*%
%LPC*%
G36*
X02730Y03164D02*
Y03135D01*
X02759*
X02758Y03143*
X02750Y03155*
X02738Y03163*
X02730Y03164*
G37*
G36*
X02720D02*
X02711Y03163D01*
X02699Y03155*
X02692Y03143*
X02690Y03135*
X02720*
Y03164*
G37*
%LNsensor_pcb-5*%
%LPD*%
G54D11*
X02783Y03070D03*
X02716D03*
G54D15*
X02850Y02775D02*
X02890D01*
X02753Y02678D02*
X02850Y02775D01*
X02753Y02360D02*
Y02678D01*
X02704Y03469D02*
X02869D01*
X02535Y03300D02*
X02704Y03469D01*
X02535Y03045D02*
Y03300D01*
Y03045D02*
X02565Y03015D01*
X02650*
X02840Y02825*
X02890*
X02918Y03518D02*
Y03685D01*
X02869Y03469D02*
X02918Y03518D01*
Y03685D02*
X02947Y03714D01*
X03237Y03665D02*
X03268D01*
X03188Y03714D02*
X03237Y03665D01*
X02947Y03714D02*
X03188D01*
X03470Y03225D02*
Y03290D01*
X03420Y03175D02*
X03470Y03225D01*
X03249Y03175D02*
X03420D01*
X03185Y03275D02*
X03249D01*
X03068Y03392D02*
X03185Y03275D01*
X03068Y03392D02*
Y03565D01*
X03185Y03175D02*
X03249D01*
X03017Y03342D02*
X03185Y03175D01*
X03017Y03342D02*
Y03614D01*
X02767Y03325D02*
X02890D01*
X02808Y03275D02*
X02890D01*
X02811Y03374D02*
X02889D01*
X02808Y03275D02*
X02812Y03271D01*
X02753Y02360D02*
X02808Y02305D01*
X03249Y02775D02*
X03304D01*
X03325Y02753*
Y02464D02*
Y02753D01*
X03263Y02402D02*
X03325Y02464D01*
X03161Y02402D02*
X03263D01*
X03108Y02349D02*
X03161Y02402D01*
X03108Y02305D02*
Y02349D01*
X03208Y02305D02*
X03355Y02452D01*
Y02806*
X03336Y02825D02*
X03355Y02806D01*
X03249Y02825D02*
X03336D01*
X03212Y02579D02*
Y02641D01*
X03163Y02530D02*
X03212Y02579D01*
X03163Y02503D02*
Y02530D01*
X03173Y02849D02*
X03199Y02875D01*
X03173Y02681D02*
Y02849D01*
Y02681D02*
X03212Y02641D01*
X03142Y02669D02*
Y02887D01*
X03112Y02552D02*
Y02928D01*
X03082Y02649D02*
Y02979D01*
X03063Y02630D02*
X03082Y02649D01*
X03052Y02674D02*
Y03021D01*
X03012Y02634D02*
X03052Y02674D01*
X03023Y02697D02*
Y03059D01*
X02963Y02637D02*
X03023Y02697D01*
X03142Y02669D02*
X03163Y02649D01*
X03142Y02887D02*
X03180Y02925D01*
X03112Y02928D02*
X03159Y02975D01*
X03082Y02979D02*
X03128Y03025D01*
X03052Y03021D02*
X03106Y03075D01*
X03023Y03059D02*
X03089Y03125D01*
X02992Y02733D02*
Y03198D01*
X02861Y02602D02*
X02992Y02733D01*
X02962Y02752D02*
Y03164D01*
X02900Y02690D02*
X02962Y02752D01*
X03128Y03025D02*
X03249D01*
X03106Y03075D02*
X03249D01*
X03089Y03125D02*
X03249D01*
X02965Y03225D02*
X02992Y03198D01*
X02951Y03175D02*
X02962Y03164D01*
X02890Y03225D02*
X02965D01*
X02829Y02503D02*
X02863D01*
X02794Y02538D02*
X02829Y02503D01*
X02794Y02538D02*
Y02667D01*
X02817Y02690*
X02900*
X02890Y03175D02*
X02951D01*
X02963Y02603D02*
Y02637D01*
X03012Y02553D02*
Y02634D01*
X03063Y02603D02*
Y02630D01*
X03199Y02875D02*
X03249D01*
X03180Y02925D02*
X03249D01*
X03163Y02603D02*
Y02649D01*
X03159Y02975D02*
X03249D01*
X03063Y02503D02*
X03112Y02552D01*
X02963Y02503D02*
Y02504D01*
X03012Y02553*
X02968Y03663D02*
Y03665D01*
Y03663D02*
X03017Y03614D01*
X03068Y03665D02*
X03118Y03614D01*
Y03397D02*
Y03614D01*
Y03397D02*
X03191Y03325D01*
X03249*
Y03425D02*
X03338D01*
X02776D02*
X02890D01*
X02594Y03076D02*
X02594Y03076D01*
X02717*
X02783Y03070D02*
X02788Y03075D01*
X02890*
G54D18*
X02594Y03076D03*
Y02957D03*
X02312Y02643D03*
X03811D03*
X03061Y03942D03*
G54D19*
X02650Y02740D03*
G54D20*
X02650Y02640D03*
X02868Y03665D03*
Y03565D03*
X02968Y03665D03*
Y03565D03*
X03068Y03665D03*
Y03565D03*
X03168Y03665D03*
Y03565D03*
X03268Y03665D03*
X03263Y02503D03*
Y02603D03*
X03163Y02503D03*
Y02603D03*
X03063Y02503D03*
Y02603D03*
X02963Y02503D03*
Y02603D03*
X02863Y02503D03*
X03308Y02305D03*
X03208D03*
X03108D03*
X03008D03*
X02908D03*
G54D21*
X03268Y03565D03*
X02863Y02603D03*
X02808Y02305D03*
G54D22*
X03470Y03010D03*
X03470Y03290D03*
G54D23*
X03569Y03010D03*
Y03290D03*
G54D24*
X02760Y02760D03*
X02725Y03130D03*
X02812Y03271D03*
X02811Y03374D03*
X02776Y03322D03*
Y03425D03*
X03338D03*
G54D25*
X02890Y02775D03*
Y02825D03*
Y02875D03*
Y02925D03*
Y02975D03*
Y03025D03*
Y03075D03*
Y03125D03*
Y03175D03*
Y03225D03*
Y03275D03*
Y03325D03*
Y03375D03*
Y03425D03*
X03249Y02775D03*
Y02825D03*
Y02875D03*
Y02925D03*
Y02975D03*
Y03025D03*
Y03075D03*
Y03125D03*
Y03175D03*
Y03225D03*
Y03275D03*
Y03325D03*
Y03375D03*
Y03425D03*
M02*