%FSDAX23Y23*%
%MOIN*%
%SFA1B1*%

%IPPOS*%
%ADD17C,0.023600*%
%ADD26C,0.007900*%
%ADD27C,0.010000*%
%ADD28C,0.006100*%
%ADD41C,0.009800*%
%LNsensor_pcb-1*%
%LPD*%
G54D17*
X03003Y02783D02*
D01*
X03003Y02783*
X03002Y02784*
X03002Y02785*
X03002Y02786*
X03002Y02787*
X03002Y02787*
X03001Y02788*
X03001Y02789*
X03000Y02790*
X03000Y02790*
X02999Y02791*
X02999Y02791*
X02998Y02792*
X02997Y02792*
X02997Y02793*
X02996Y02793*
X02995Y02794*
X02994Y02794*
X02994Y02794*
X02993Y02794*
X02992Y02794*
X02991Y02794*
X02990*
X02990Y02794*
X02989Y02794*
X02988Y02794*
X02987Y02794*
X02986Y02794*
X02986Y02793*
X02985Y02793*
X02984Y02792*
X02984Y02792*
X02983Y02791*
X02982Y02791*
X02982Y02790*
X02981Y02790*
X02981Y02789*
X02980Y02788*
X02980Y02787*
X02980Y02787*
X02979Y02786*
X02979Y02785*
X02979Y02784*
X02979Y02783*
X02979Y02783*
X02979Y02782*
X02979Y02781*
X02979Y02780*
X02979Y02779*
X02980Y02779*
X02980Y02778*
X02980Y02777*
X02981Y02776*
X02981Y02776*
X02982Y02775*
X02982Y02774*
X02983Y02774*
X02984Y02773*
X02984Y02773*
X02985Y02772*
X02986Y02772*
X02986Y02772*
X02987Y02771*
X02988Y02771*
X02989Y02771*
X02990Y02771*
X02990Y02771*
X02991*
X02992Y02771*
X02993Y02771*
X02994Y02771*
X02994Y02771*
X02995Y02772*
X02996Y02772*
X02997Y02772*
X02997Y02773*
X02998Y02773*
X02999Y02774*
X02999Y02774*
X03000Y02775*
X03000Y02776*
X03001Y02776*
X03001Y02777*
X03002Y02778*
X03002Y02779*
X03002Y02779*
X03002Y02780*
X03002Y02781*
X03003Y02782*
X03003Y02783*
G54D26*
X03644Y03010D02*
D01*
X03643Y03018*
X03642Y03027*
X03641Y03035*
X03639Y03044*
X03636Y03052*
X03633Y03060*
X03629Y03068*
X03625Y03075*
X03620Y03082*
X03614Y03089*
X03609Y03096*
X03602Y03102*
X03596Y03107*
X03589Y03112*
X03582Y03117*
X03574Y03121*
X03566Y03124*
X03558Y03127*
X03549Y03130*
X03541Y03132*
X03532Y03133*
X03524Y03133*
X03515*
X03507Y03133*
X03498Y03132*
X03490Y03130*
X03481Y03127*
X03473Y03124*
X03465Y03121*
X03458Y03117*
X03450Y03112*
X03443Y03107*
X03437Y03102*
X03430Y03096*
X03425Y03089*
X03419Y03082*
X03414Y03075*
X03410Y03068*
X03406Y03060*
X03403Y03052*
X03400Y03044*
X03398Y03035*
X03397Y03027*
X03396Y03018*
X03396Y03010*
X03396Y03001*
X03397Y02992*
X03398Y02984*
X03400Y02975*
X03403Y02967*
X03406Y02959*
X03410Y02951*
X03414Y02944*
X03419Y02937*
X03425Y02930*
X03430Y02923*
X03437Y02917*
X03443Y02912*
X03450Y02907*
X03458Y02902*
X03465Y02898*
X03473Y02895*
X03481Y02892*
X03490Y02889*
X03498Y02887*
X03507Y02886*
X03515Y02886*
X03524*
X03532Y02886*
X03541Y02887*
X03549Y02889*
X03558Y02892*
X03566Y02895*
X03574Y02898*
X03582Y02902*
X03589Y02907*
X03596Y02912*
X03602Y02917*
X03609Y02923*
X03614Y02930*
X03620Y02937*
X03625Y02944*
X03629Y02951*
X03633Y02959*
X03636Y02967*
X03639Y02975*
X03641Y02984*
X03642Y02992*
X03643Y03001*
X03644Y03010*
Y03290D02*
D01*
X03643Y03298*
X03642Y03307*
X03641Y03315*
X03639Y03324*
X03636Y03332*
X03633Y03340*
X03629Y03348*
X03625Y03355*
X03620Y03362*
X03614Y03369*
X03609Y03376*
X03602Y03382*
X03596Y03387*
X03589Y03392*
X03582Y03397*
X03574Y03401*
X03566Y03404*
X03558Y03407*
X03549Y03410*
X03541Y03412*
X03532Y03413*
X03524Y03413*
X03515*
X03507Y03413*
X03498Y03412*
X03490Y03410*
X03481Y03407*
X03473Y03404*
X03465Y03401*
X03458Y03397*
X03450Y03392*
X03443Y03387*
X03437Y03382*
X03430Y03376*
X03425Y03369*
X03419Y03362*
X03414Y03355*
X03410Y03348*
X03406Y03340*
X03403Y03332*
X03400Y03324*
X03398Y03315*
X03397Y03307*
X03396Y03298*
X03396Y03290*
X03396Y03281*
X03397Y03272*
X03398Y03264*
X03400Y03255*
X03403Y03247*
X03406Y03239*
X03410Y03231*
X03414Y03224*
X03419Y03217*
X03425Y03210*
X03430Y03203*
X03437Y03197*
X03443Y03192*
X03450Y03187*
X03458Y03182*
X03465Y03178*
X03473Y03175*
X03481Y03172*
X03490Y03169*
X03498Y03167*
X03507Y03166*
X03515Y03166*
X03524*
X03532Y03166*
X03541Y03167*
X03549Y03169*
X03558Y03172*
X03566Y03175*
X03574Y03178*
X03582Y03182*
X03589Y03187*
X03596Y03192*
X03602Y03197*
X03609Y03203*
X03614Y03210*
X03620Y03217*
X03625Y03224*
X03629Y03231*
X03633Y03239*
X03636Y03247*
X03639Y03255*
X03641Y03264*
X03642Y03272*
X03643Y03281*
X03644Y03290*
X02818Y03515D02*
X03318D01*
X02818Y03715D02*
X03318D01*
Y03515D02*
Y03715D01*
X02818Y03515D02*
Y03715D01*
X02813Y02653D02*
X03313D01*
X02813Y02453D02*
X03313D01*
X02813D02*
Y02653D01*
X03313Y02453D02*
Y02653D01*
X02758Y02355D02*
X03358D01*
X02758Y02255D02*
X03358D01*
X02758D02*
Y02355D01*
X03358Y02255D02*
Y02355D01*
X02951Y02743D02*
Y03456D01*
X03188Y02743D02*
Y03456D01*
X02951Y02743D02*
X03188D01*
X02951Y03456D02*
X03188D01*
G54D27*
X02653Y03015D02*
D01*
X02652Y03019*
X02652Y03023*
X02651Y03027*
X02650Y03031*
X02649Y03035*
X02647Y03039*
X02646Y03042*
X02644Y03046*
X02641Y03049*
X02639Y03053*
X02636Y03056*
X02633Y03059*
X02630Y03061*
X02627Y03064*
X02623Y03066*
X02619Y03068*
X02616Y03069*
X02612Y03071*
X02608Y03072*
X02604Y03073*
X02600Y03073*
X02596Y03074*
X02591*
X02587Y03073*
X02583Y03073*
X02579Y03072*
X02575Y03071*
X02571Y03069*
X02568Y03068*
X02564Y03066*
X02560Y03064*
X02557Y03061*
X02554Y03059*
X02551Y03056*
X02548Y03053*
X02546Y03049*
X02543Y03046*
X02541Y03042*
X02540Y03039*
X02538Y03035*
X02537Y03031*
X02536Y03027*
X02535Y03023*
X02535Y03019*
X02534Y03015*
X02535Y03010*
X02535Y03006*
X02536Y03002*
X02537Y02998*
X02538Y02994*
X02540Y02991*
X02541Y02987*
X02543Y02983*
X02546Y02980*
X02548Y02977*
X02551Y02974*
X02554Y02971*
X02557Y02968*
X02560Y02966*
X02564Y02963*
X02568Y02961*
X02571Y02960*
X02575Y02958*
X02579Y02957*
X02583Y02956*
X02587Y02956*
X02591Y02956*
X02596*
X02600Y02956*
X02604Y02956*
X02608Y02957*
X02612Y02958*
X02616Y02960*
X02619Y02961*
X02623Y02963*
X02627Y02966*
X02630Y02968*
X02633Y02971*
X02636Y02974*
X02639Y02977*
X02641Y02980*
X02644Y02983*
X02646Y02987*
X02647Y02991*
X02649Y02994*
X02650Y02998*
X02651Y03002*
X02652Y03006*
X02652Y03010*
X02653Y03015*
X02672Y03017D02*
D01*
X02672Y03022*
X02671Y03027*
X02670Y03033*
X02669Y03038*
X02667Y03043*
X02665Y03049*
X02663Y03053*
X02660Y03058*
X02657Y03063*
X02654Y03067*
X02650Y03071*
X02646Y03075*
X02642Y03079*
X02638Y03082*
X02633Y03085*
X02628Y03087*
X02623Y03089*
X02618Y03091*
X02613Y03093*
X02607Y03094*
X02602Y03095*
X02596Y03095*
X02591*
X02585Y03095*
X02580Y03094*
X02574Y03093*
X02569Y03091*
X02564Y03089*
X02559Y03087*
X02554Y03085*
X02549Y03082*
X02545Y03079*
X02541Y03075*
X02537Y03071*
X02533Y03067*
X02530Y03063*
X02527Y03058*
X02524Y03053*
X02522Y03049*
X02520Y03043*
X02518Y03038*
X02517Y03033*
X02516Y03027*
X02515Y03022*
X02515Y03017*
X02515Y03011*
X02516Y03006*
X02517Y03000*
X02518Y02995*
X02520Y02990*
X02522Y02984*
X02524Y02980*
X02527Y02975*
X02530Y02970*
X02533Y02966*
X02537Y02962*
X02541Y02958*
X02545Y02954*
X02549Y02951*
X02554Y02948*
X02559Y02946*
X02564Y02944*
X02569Y02942*
X02574Y02940*
X02580Y02939*
X02585Y02938*
X02591Y02938*
X02596*
X02602Y02938*
X02607Y02939*
X02613Y02940*
X02618Y02942*
X02623Y02944*
X02628Y02946*
X02633Y02948*
X02638Y02951*
X02642Y02954*
X02646Y02958*
X02650Y02962*
X02654Y02966*
X02657Y02970*
X02660Y02975*
X02663Y02980*
X02665Y02984*
X02667Y02990*
X02669Y02995*
X02670Y03000*
X02671Y03006*
X02672Y03011*
X02672Y03017*
G54D28*
X02500Y03049D02*
Y03010D01*
X02480*
X02473Y03016*
Y03042*
X02480Y03049*
X02500*
X02460Y03010D02*
X02447D01*
X02454*
Y03049*
X02460Y03042*
X02427D02*
X02421Y03049D01*
X02408*
X02401Y03042*
Y03016*
X02408Y03010*
X02421*
X02427Y03016*
Y03042*
X02388D02*
X02381Y03049D01*
X02368*
X02362Y03042*
Y03016*
X02368Y03010*
X02381*
X02388Y03016*
Y03042*
X02825Y02995D02*
Y03034D01*
X02805*
X02798Y03027*
Y03014*
X02805Y03008*
X02825*
X02811D02*
X02798Y02995D01*
X02785D02*
X02772D01*
X02779*
Y03034*
X02785Y03027*
X02752D02*
X02746Y03034D01*
X02733*
X02726Y03027*
Y03001*
X02733Y02995*
X02746*
X02752Y03001*
Y03027*
X02713D02*
X02706Y03034D01*
X02693*
X02687Y03027*
Y03021*
X02693Y03014*
X02700*
X02693*
X02687Y03008*
Y03001*
X02693Y02995*
X02706*
X02713Y03001*
X03345Y03734D02*
Y03773D01*
X03325*
X03318Y03766*
Y03753*
X03325Y03747*
X03345*
X03305Y03734D02*
X03292D01*
X03299*
Y03773*
X03305Y03766*
X03272D02*
X03266Y03773D01*
X03253*
X03246Y03766*
Y03740*
X03253Y03734*
X03266*
X03272Y03740*
Y03766*
X03233D02*
X03226Y03773D01*
X03213*
X03207Y03766*
Y03760*
X03213Y03753*
X03220*
X03213*
X03207Y03747*
Y03740*
X03213Y03734*
X03226*
X03233Y03740*
X02808Y03645D02*
X02794D01*
X02801*
Y03684*
X02808Y03677*
X02775D02*
X02768Y03684D01*
X02755*
X02749Y03677*
Y03651*
X02755Y03645*
X02768*
X02775Y03651*
Y03677*
X02808Y03551D02*
X02801Y03545D01*
X02788*
X02781Y03551*
Y03577*
X02788Y03584*
X02801*
X02808Y03577*
Y03571*
X02801Y03564*
X02781*
X03348Y03545D02*
X03334D01*
X03341*
Y03584*
X03348Y03577*
X03341Y03645D02*
X03368D01*
X03341Y03671*
Y03677*
X03348Y03684*
X03361*
X03368Y03677*
X03315Y02400D02*
Y02439D01*
X03295*
X03288Y02432*
Y02419*
X03295Y02413*
X03315*
X03275Y02400D02*
X03262D01*
X03269*
Y02439*
X03275Y02432*
X03242D02*
X03236Y02439D01*
X03223*
X03216Y02432*
Y02406*
X03223Y02400*
X03236*
X03242Y02406*
Y02432*
X03203Y02400D02*
X03190D01*
X03196*
Y02439*
X03203Y02432*
X03395Y02480D02*
X03381D01*
X03388*
Y02519*
X03395Y02512*
X03362D02*
X03355Y02519D01*
X03342*
X03336Y02512*
Y02486*
X03342Y02480*
X03355*
X03362Y02486*
Y02512*
X03350Y02591D02*
X03343Y02585D01*
X03330*
X03323Y02591*
Y02617*
X03330Y02624*
X03343*
X03350Y02617*
Y02611*
X03343Y02604*
X03323*
X02785Y02585D02*
X02771D01*
X02778*
Y02624*
X02785Y02617*
X02763Y02480D02*
X02790D01*
X02763Y02506*
Y02512*
X02770Y02519*
X02783*
X02790Y02512*
X03568Y02847D02*
X03575Y02854D01*
X03588*
X03595Y02847*
Y02821*
X03588Y02815*
X03575*
X03568Y02821*
X03555Y02815D02*
X03542D01*
X03549*
Y02854*
X03555Y02847*
X03522D02*
X03516Y02854D01*
X03503*
X03496Y02847*
Y02821*
X03503Y02815*
X03516*
X03522Y02821*
Y02847*
X03483D02*
X03476Y02854D01*
X03463*
X03457Y02847*
Y02821*
X03463Y02815*
X03476*
X03483Y02821*
Y02847*
X03337Y03019D02*
X03364D01*
X03351Y03006D02*
Y03033D01*
X03573Y03467D02*
X03580Y03474D01*
X03593*
X03600Y03467*
Y03441*
X03593Y03435*
X03580*
X03573Y03441*
X03560Y03435D02*
X03547D01*
X03554*
Y03474*
X03560Y03467*
X03527D02*
X03521Y03474D01*
X03508*
X03501Y03467*
Y03441*
X03508Y03435*
X03521*
X03527Y03441*
Y03467*
X03468Y03435D02*
Y03474D01*
X03488Y03454*
X03462*
X03337Y03299D02*
X03364D01*
X03351Y03286D02*
Y03313D01*
X03349Y02180D02*
Y02219D01*
X03329*
X03322Y02212*
Y02199*
X03329Y02193*
X03349*
X03309Y02180D02*
X03296D01*
X03303*
Y02219*
X03309Y02212*
X03276D02*
X03270Y02219D01*
X03257*
X03250Y02212*
Y02186*
X03257Y02180*
X03270*
X03276Y02186*
Y02212*
X03211Y02180D02*
X03237D01*
X03211Y02206*
Y02212*
X03217Y02219*
X03230*
X03237Y02212*
X03125Y02719D02*
Y02686D01*
X03118Y02680*
X03105*
X03098Y02686*
Y02719*
X03085Y02680D02*
X03072D01*
X03079*
Y02719*
X03085Y02712*
X03052D02*
X03046Y02719D01*
X03033*
X03026Y02712*
Y02686*
X03033Y02680*
X03046*
X03052Y02686*
Y02712*
X03013D02*
X03006Y02719D01*
X02993*
X02987Y02712*
Y02686*
X02993Y02680*
X03006*
X03013Y02686*
Y02712*
G54D41*
X02895Y02741D02*
D01*
X02895Y02741*
X02895Y02742*
X02895Y02742*
X02895Y02742*
X02895Y02743*
X02895Y02743*
X02895Y02743*
X02895Y02744*
X02894Y02744*
X02894Y02744*
X02894Y02744*
X02894Y02745*
X02893Y02745*
X02893Y02745*
X02893Y02745*
X02893Y02745*
X02892Y02746*
X02892Y02746*
X02892Y02746*
X02891Y02746*
X02891Y02746*
X02891Y02746*
X02890*
X02890Y02746*
X02890Y02746*
X02889Y02746*
X02889Y02746*
X02889Y02746*
X02888Y02745*
X02888Y02745*
X02888Y02745*
X02887Y02745*
X02887Y02745*
X02887Y02744*
X02887Y02744*
X02886Y02744*
X02886Y02744*
X02886Y02743*
X02886Y02743*
X02886Y02743*
X02886Y02742*
X02886Y02742*
X02886Y02742*
X02886Y02741*
X02886Y02741*
X02886Y02741*
X02886Y02740*
X02886Y02740*
X02886Y02740*
X02886Y02739*
X02886Y02739*
X02886Y02739*
X02886Y02738*
X02886Y02738*
X02887Y02738*
X02887Y02738*
X02887Y02737*
X02887Y02737*
X02888Y02737*
X02888Y02737*
X02888Y02737*
X02889Y02736*
X02889Y02736*
X02889Y02736*
X02890Y02736*
X02890Y02736*
X02890Y02736*
X02891*
X02891Y02736*
X02891Y02736*
X02892Y02736*
X02892Y02736*
X02892Y02736*
X02893Y02737*
X02893Y02737*
X02893Y02737*
X02893Y02737*
X02894Y02737*
X02894Y02738*
X02894Y02738*
X02894Y02738*
X02895Y02738*
X02895Y02739*
X02895Y02739*
X02895Y02739*
X02895Y02740*
X02895Y02740*
X02895Y02740*
X02895Y02741*
X02895Y02741*
M02*