%FSDAX23Y23*%
%MOIN*%
%SFA1B1*%

%IPPOS*%
%ADD43C,0.002000*%
%ADD44C,0.002700*%
%LNsensor_pcb-1*%
%LPD*%
G54D43*
X02586Y03068D02*
Y03084D01*
X02602*
Y03068*
X02586*
Y02949D02*
Y02965D01*
X02602*
Y02949*
X02586*
X03470Y03002D02*
X03462Y03018D01*
X03478*
X03470Y03002*
X03569D02*
X03561Y03018D01*
X03577*
X03569Y03002*
Y03282D02*
X03561Y03298D01*
X03577*
X03569Y03282*
X03470D02*
X03462Y03298D01*
X03478*
X03470Y03282*
X02312Y02635D02*
X02316Y02639D01*
X02320*
X02316Y02643*
X02320Y02647*
X02316*
X02312Y02651*
X02308Y02647*
X02304*
X02308Y02643*
X02304Y02639*
X02308*
X02312Y02635*
X03811D02*
X03815Y02639D01*
X03819*
X03815Y02643*
X03819Y02647*
X03815*
X03811Y02651*
X03807Y02647*
X03803*
X03807Y02643*
X03803Y02639*
X03807*
X03811Y02635*
X03061Y03934D02*
X03065Y03938D01*
X03069*
X03065Y03942*
X03069Y03946*
X03065*
X03061Y03950*
X03057Y03946*
X03053*
X03057Y03942*
X03053Y03938*
X03057*
X03061Y03934*
X02752Y02752D02*
X02756Y02760D01*
X02752Y02768*
X02760Y02764*
X02768Y02768*
X02764Y02760*
X02768Y02752*
X02760Y02756*
X02752Y02752*
X02717Y03122D02*
X02721Y03130D01*
X02717Y03138*
X02725Y03134*
X02733Y03138*
X02729Y03130*
X02733Y03122*
X02725Y03126*
X02717Y03122*
X02804Y03263D02*
X02808Y03271D01*
X02804Y03279*
X02812Y03275*
X02820Y03279*
X02816Y03271*
X02820Y03263*
X02812Y03267*
X02804Y03263*
X02803Y03366D02*
X02807Y03374D01*
X02803Y03382*
X02811Y03378*
X02819Y03382*
X02815Y03374*
X02819Y03366*
X02811Y03370*
X02803Y03366*
X02768Y03314D02*
X02772Y03322D01*
X02768Y03330*
X02776Y03326*
X02784Y03330*
X02780Y03322*
X02784Y03314*
X02776Y03318*
X02768Y03314*
Y03417D02*
X02772Y03425D01*
X02768Y03433*
X02776Y03429*
X02784Y03433*
X02780Y03425*
X02784Y03417*
X02776Y03421*
X02768Y03417*
X03330D02*
X03334Y03425D01*
X03330Y03433*
X03338Y03429*
X03346Y03433*
X03342Y03425*
X03346Y03417*
X03338Y03421*
X03330Y03417*
G54D44*
X02658Y02740D02*
D01*
X02657Y02740*
X02657Y02741*
X02657Y02741*
X02657Y02742*
X02657Y02742*
X02657Y02743*
X02657Y02743*
X02656Y02744*
X02656Y02744*
X02656Y02745*
X02655Y02745*
X02655Y02745*
X02654Y02746*
X02654Y02746*
X02654Y02746*
X02653Y02747*
X02652Y02747*
X02652Y02747*
X02651Y02747*
X02651Y02747*
X02650Y02747*
X02650Y02747*
X02649*
X02649Y02747*
X02648Y02747*
X02648Y02747*
X02647Y02747*
X02647Y02747*
X02646Y02747*
X02646Y02746*
X02645Y02746*
X02645Y02746*
X02644Y02745*
X02644Y02745*
X02643Y02745*
X02643Y02744*
X02643Y02744*
X02642Y02743*
X02642Y02743*
X02642Y02742*
X02642Y02742*
X02642Y02741*
X02642Y02741*
X02642Y02740*
X02642Y02740*
X02642Y02739*
X02642Y02738*
X02642Y02738*
X02642Y02737*
X02642Y02737*
X02642Y02736*
X02642Y02736*
X02643Y02735*
X02643Y02735*
X02643Y02734*
X02644Y02734*
X02644Y02734*
X02645Y02733*
X02645Y02733*
X02646Y02733*
X02646Y02732*
X02647Y02732*
X02647Y02732*
X02648Y02732*
X02648Y02732*
X02649Y02732*
X02649Y02732*
X02650*
X02650Y02732*
X02651Y02732*
X02651Y02732*
X02652Y02732*
X02652Y02732*
X02653Y02732*
X02654Y02733*
X02654Y02733*
X02654Y02733*
X02655Y02734*
X02655Y02734*
X02656Y02734*
X02656Y02735*
X02656Y02735*
X02657Y02736*
X02657Y02736*
X02657Y02737*
X02657Y02737*
X02657Y02738*
X02657Y02738*
X02657Y02739*
X02658Y02740*
Y02640D02*
D01*
X02657Y02640*
X02657Y02641*
X02657Y02641*
X02657Y02642*
X02657Y02642*
X02657Y02643*
X02657Y02643*
X02656Y02644*
X02656Y02644*
X02656Y02645*
X02655Y02645*
X02655Y02645*
X02654Y02646*
X02654Y02646*
X02654Y02646*
X02653Y02647*
X02652Y02647*
X02652Y02647*
X02651Y02647*
X02651Y02647*
X02650Y02647*
X02650Y02647*
X02649*
X02649Y02647*
X02648Y02647*
X02648Y02647*
X02647Y02647*
X02647Y02647*
X02646Y02647*
X02646Y02646*
X02645Y02646*
X02645Y02646*
X02644Y02645*
X02644Y02645*
X02643Y02645*
X02643Y02644*
X02643Y02644*
X02642Y02643*
X02642Y02643*
X02642Y02642*
X02642Y02642*
X02642Y02641*
X02642Y02641*
X02642Y02640*
X02642Y02640*
X02642Y02639*
X02642Y02638*
X02642Y02638*
X02642Y02637*
X02642Y02637*
X02642Y02636*
X02642Y02636*
X02643Y02635*
X02643Y02635*
X02643Y02634*
X02644Y02634*
X02644Y02634*
X02645Y02633*
X02645Y02633*
X02646Y02633*
X02646Y02632*
X02647Y02632*
X02647Y02632*
X02648Y02632*
X02648Y02632*
X02649Y02632*
X02649Y02632*
X02650*
X02650Y02632*
X02651Y02632*
X02651Y02632*
X02652Y02632*
X02652Y02632*
X02653Y02632*
X02654Y02633*
X02654Y02633*
X02654Y02633*
X02655Y02634*
X02655Y02634*
X02656Y02634*
X02656Y02635*
X02656Y02635*
X02657Y02636*
X02657Y02636*
X02657Y02637*
X02657Y02637*
X02657Y02638*
X02657Y02638*
X02657Y02639*
X02658Y02640*
X02876Y03665D02*
D01*
X02875Y03665*
X02875Y03666*
X02875Y03666*
X02875Y03667*
X02875Y03667*
X02875Y03668*
X02875Y03668*
X02874Y03669*
X02874Y03669*
X02874Y03670*
X02873Y03670*
X02873Y03670*
X02872Y03671*
X02872Y03671*
X02872Y03671*
X02871Y03672*
X02870Y03672*
X02870Y03672*
X02869Y03672*
X02869Y03672*
X02868Y03672*
X02868Y03672*
X02867*
X02867Y03672*
X02866Y03672*
X02866Y03672*
X02865Y03672*
X02865Y03672*
X02864Y03672*
X02864Y03671*
X02863Y03671*
X02863Y03671*
X02862Y03670*
X02862Y03670*
X02861Y03670*
X02861Y03669*
X02861Y03669*
X02860Y03668*
X02860Y03668*
X02860Y03667*
X02860Y03667*
X02860Y03666*
X02860Y03666*
X02860Y03665*
X02860Y03665*
X02860Y03664*
X02860Y03663*
X02860Y03663*
X02860Y03662*
X02860Y03662*
X02860Y03661*
X02860Y03661*
X02861Y03660*
X02861Y03660*
X02861Y03659*
X02862Y03659*
X02862Y03659*
X02863Y03658*
X02863Y03658*
X02864Y03658*
X02864Y03657*
X02865Y03657*
X02865Y03657*
X02866Y03657*
X02866Y03657*
X02867Y03657*
X02867Y03657*
X02868*
X02868Y03657*
X02869Y03657*
X02869Y03657*
X02870Y03657*
X02870Y03657*
X02871Y03657*
X02872Y03658*
X02872Y03658*
X02872Y03658*
X02873Y03659*
X02873Y03659*
X02874Y03659*
X02874Y03660*
X02874Y03660*
X02875Y03661*
X02875Y03661*
X02875Y03662*
X02875Y03662*
X02875Y03663*
X02875Y03663*
X02875Y03664*
X02876Y03665*
Y03565D02*
D01*
X02875Y03565*
X02875Y03566*
X02875Y03566*
X02875Y03567*
X02875Y03567*
X02875Y03568*
X02875Y03568*
X02874Y03569*
X02874Y03569*
X02874Y03570*
X02873Y03570*
X02873Y03570*
X02872Y03571*
X02872Y03571*
X02872Y03571*
X02871Y03572*
X02870Y03572*
X02870Y03572*
X02869Y03572*
X02869Y03572*
X02868Y03572*
X02868Y03572*
X02867*
X02867Y03572*
X02866Y03572*
X02866Y03572*
X02865Y03572*
X02865Y03572*
X02864Y03572*
X02864Y03571*
X02863Y03571*
X02863Y03571*
X02862Y03570*
X02862Y03570*
X02861Y03570*
X02861Y03569*
X02861Y03569*
X02860Y03568*
X02860Y03568*
X02860Y03567*
X02860Y03567*
X02860Y03566*
X02860Y03566*
X02860Y03565*
X02860Y03565*
X02860Y03564*
X02860Y03563*
X02860Y03563*
X02860Y03562*
X02860Y03562*
X02860Y03561*
X02860Y03561*
X02861Y03560*
X02861Y03560*
X02861Y03559*
X02862Y03559*
X02862Y03559*
X02863Y03558*
X02863Y03558*
X02864Y03558*
X02864Y03557*
X02865Y03557*
X02865Y03557*
X02866Y03557*
X02866Y03557*
X02867Y03557*
X02867Y03557*
X02868*
X02868Y03557*
X02869Y03557*
X02869Y03557*
X02870Y03557*
X02870Y03557*
X02871Y03557*
X02872Y03558*
X02872Y03558*
X02872Y03558*
X02873Y03559*
X02873Y03559*
X02874Y03559*
X02874Y03560*
X02874Y03560*
X02875Y03561*
X02875Y03561*
X02875Y03562*
X02875Y03562*
X02875Y03563*
X02875Y03563*
X02875Y03564*
X02876Y03565*
X02976Y03665D02*
D01*
X02975Y03665*
X02975Y03666*
X02975Y03666*
X02975Y03667*
X02975Y03667*
X02975Y03668*
X02975Y03668*
X02974Y03669*
X02974Y03669*
X02974Y03670*
X02973Y03670*
X02973Y03670*
X02972Y03671*
X02972Y03671*
X02972Y03671*
X02971Y03672*
X02970Y03672*
X02970Y03672*
X02969Y03672*
X02969Y03672*
X02968Y03672*
X02968Y03672*
X02967*
X02967Y03672*
X02966Y03672*
X02966Y03672*
X02965Y03672*
X02965Y03672*
X02964Y03672*
X02964Y03671*
X02963Y03671*
X02963Y03671*
X02962Y03670*
X02962Y03670*
X02961Y03670*
X02961Y03669*
X02961Y03669*
X02960Y03668*
X02960Y03668*
X02960Y03667*
X02960Y03667*
X02960Y03666*
X02960Y03666*
X02960Y03665*
X02960Y03665*
X02960Y03664*
X02960Y03663*
X02960Y03663*
X02960Y03662*
X02960Y03662*
X02960Y03661*
X02960Y03661*
X02961Y03660*
X02961Y03660*
X02961Y03659*
X02962Y03659*
X02962Y03659*
X02963Y03658*
X02963Y03658*
X02964Y03658*
X02964Y03657*
X02965Y03657*
X02965Y03657*
X02966Y03657*
X02966Y03657*
X02967Y03657*
X02967Y03657*
X02968*
X02968Y03657*
X02969Y03657*
X02969Y03657*
X02970Y03657*
X02970Y03657*
X02971Y03657*
X02972Y03658*
X02972Y03658*
X02972Y03658*
X02973Y03659*
X02973Y03659*
X02974Y03659*
X02974Y03660*
X02974Y03660*
X02975Y03661*
X02975Y03661*
X02975Y03662*
X02975Y03662*
X02975Y03663*
X02975Y03663*
X02975Y03664*
X02976Y03665*
Y03565D02*
D01*
X02975Y03565*
X02975Y03566*
X02975Y03566*
X02975Y03567*
X02975Y03567*
X02975Y03568*
X02975Y03568*
X02974Y03569*
X02974Y03569*
X02974Y03570*
X02973Y03570*
X02973Y03570*
X02972Y03571*
X02972Y03571*
X02972Y03571*
X02971Y03572*
X02970Y03572*
X02970Y03572*
X02969Y03572*
X02969Y03572*
X02968Y03572*
X02968Y03572*
X02967*
X02967Y03572*
X02966Y03572*
X02966Y03572*
X02965Y03572*
X02965Y03572*
X02964Y03572*
X02964Y03571*
X02963Y03571*
X02963Y03571*
X02962Y03570*
X02962Y03570*
X02961Y03570*
X02961Y03569*
X02961Y03569*
X02960Y03568*
X02960Y03568*
X02960Y03567*
X02960Y03567*
X02960Y03566*
X02960Y03566*
X02960Y03565*
X02960Y03565*
X02960Y03564*
X02960Y03563*
X02960Y03563*
X02960Y03562*
X02960Y03562*
X02960Y03561*
X02960Y03561*
X02961Y03560*
X02961Y03560*
X02961Y03559*
X02962Y03559*
X02962Y03559*
X02963Y03558*
X02963Y03558*
X02964Y03558*
X02964Y03557*
X02965Y03557*
X02965Y03557*
X02966Y03557*
X02966Y03557*
X02967Y03557*
X02967Y03557*
X02968*
X02968Y03557*
X02969Y03557*
X02969Y03557*
X02970Y03557*
X02970Y03557*
X02971Y03557*
X02972Y03558*
X02972Y03558*
X02972Y03558*
X02973Y03559*
X02973Y03559*
X02974Y03559*
X02974Y03560*
X02974Y03560*
X02975Y03561*
X02975Y03561*
X02975Y03562*
X02975Y03562*
X02975Y03563*
X02975Y03563*
X02975Y03564*
X02976Y03565*
X03076Y03665D02*
D01*
X03075Y03665*
X03075Y03666*
X03075Y03666*
X03075Y03667*
X03075Y03667*
X03075Y03668*
X03075Y03668*
X03074Y03669*
X03074Y03669*
X03074Y03670*
X03073Y03670*
X03073Y03670*
X03072Y03671*
X03072Y03671*
X03072Y03671*
X03071Y03672*
X03070Y03672*
X03070Y03672*
X03069Y03672*
X03069Y03672*
X03068Y03672*
X03068Y03672*
X03067*
X03067Y03672*
X03066Y03672*
X03066Y03672*
X03065Y03672*
X03065Y03672*
X03064Y03672*
X03064Y03671*
X03063Y03671*
X03063Y03671*
X03062Y03670*
X03062Y03670*
X03061Y03670*
X03061Y03669*
X03061Y03669*
X03060Y03668*
X03060Y03668*
X03060Y03667*
X03060Y03667*
X03060Y03666*
X03060Y03666*
X03060Y03665*
X03060Y03665*
X03060Y03664*
X03060Y03663*
X03060Y03663*
X03060Y03662*
X03060Y03662*
X03060Y03661*
X03060Y03661*
X03061Y03660*
X03061Y03660*
X03061Y03659*
X03062Y03659*
X03062Y03659*
X03063Y03658*
X03063Y03658*
X03064Y03658*
X03064Y03657*
X03065Y03657*
X03065Y03657*
X03066Y03657*
X03066Y03657*
X03067Y03657*
X03067Y03657*
X03068*
X03068Y03657*
X03069Y03657*
X03069Y03657*
X03070Y03657*
X03070Y03657*
X03071Y03657*
X03072Y03658*
X03072Y03658*
X03072Y03658*
X03073Y03659*
X03073Y03659*
X03074Y03659*
X03074Y03660*
X03074Y03660*
X03075Y03661*
X03075Y03661*
X03075Y03662*
X03075Y03662*
X03075Y03663*
X03075Y03663*
X03075Y03664*
X03076Y03665*
Y03565D02*
D01*
X03075Y03565*
X03075Y03566*
X03075Y03566*
X03075Y03567*
X03075Y03567*
X03075Y03568*
X03075Y03568*
X03074Y03569*
X03074Y03569*
X03074Y03570*
X03073Y03570*
X03073Y03570*
X03072Y03571*
X03072Y03571*
X03072Y03571*
X03071Y03572*
X03070Y03572*
X03070Y03572*
X03069Y03572*
X03069Y03572*
X03068Y03572*
X03068Y03572*
X03067*
X03067Y03572*
X03066Y03572*
X03066Y03572*
X03065Y03572*
X03065Y03572*
X03064Y03572*
X03064Y03571*
X03063Y03571*
X03063Y03571*
X03062Y03570*
X03062Y03570*
X03061Y03570*
X03061Y03569*
X03061Y03569*
X03060Y03568*
X03060Y03568*
X03060Y03567*
X03060Y03567*
X03060Y03566*
X03060Y03566*
X03060Y03565*
X03060Y03565*
X03060Y03564*
X03060Y03563*
X03060Y03563*
X03060Y03562*
X03060Y03562*
X03060Y03561*
X03060Y03561*
X03061Y03560*
X03061Y03560*
X03061Y03559*
X03062Y03559*
X03062Y03559*
X03063Y03558*
X03063Y03558*
X03064Y03558*
X03064Y03557*
X03065Y03557*
X03065Y03557*
X03066Y03557*
X03066Y03557*
X03067Y03557*
X03067Y03557*
X03068*
X03068Y03557*
X03069Y03557*
X03069Y03557*
X03070Y03557*
X03070Y03557*
X03071Y03557*
X03072Y03558*
X03072Y03558*
X03072Y03558*
X03073Y03559*
X03073Y03559*
X03074Y03559*
X03074Y03560*
X03074Y03560*
X03075Y03561*
X03075Y03561*
X03075Y03562*
X03075Y03562*
X03075Y03563*
X03075Y03563*
X03075Y03564*
X03076Y03565*
X03176Y03665D02*
D01*
X03175Y03665*
X03175Y03666*
X03175Y03666*
X03175Y03667*
X03175Y03667*
X03175Y03668*
X03175Y03668*
X03174Y03669*
X03174Y03669*
X03174Y03670*
X03173Y03670*
X03173Y03670*
X03172Y03671*
X03172Y03671*
X03172Y03671*
X03171Y03672*
X03170Y03672*
X03170Y03672*
X03169Y03672*
X03169Y03672*
X03168Y03672*
X03168Y03672*
X03167*
X03167Y03672*
X03166Y03672*
X03166Y03672*
X03165Y03672*
X03165Y03672*
X03164Y03672*
X03164Y03671*
X03163Y03671*
X03163Y03671*
X03162Y03670*
X03162Y03670*
X03161Y03670*
X03161Y03669*
X03161Y03669*
X03160Y03668*
X03160Y03668*
X03160Y03667*
X03160Y03667*
X03160Y03666*
X03160Y03666*
X03160Y03665*
X03160Y03665*
X03160Y03664*
X03160Y03663*
X03160Y03663*
X03160Y03662*
X03160Y03662*
X03160Y03661*
X03160Y03661*
X03161Y03660*
X03161Y03660*
X03161Y03659*
X03162Y03659*
X03162Y03659*
X03163Y03658*
X03163Y03658*
X03164Y03658*
X03164Y03657*
X03165Y03657*
X03165Y03657*
X03166Y03657*
X03166Y03657*
X03167Y03657*
X03167Y03657*
X03168*
X03168Y03657*
X03169Y03657*
X03169Y03657*
X03170Y03657*
X03170Y03657*
X03171Y03657*
X03172Y03658*
X03172Y03658*
X03172Y03658*
X03173Y03659*
X03173Y03659*
X03174Y03659*
X03174Y03660*
X03174Y03660*
X03175Y03661*
X03175Y03661*
X03175Y03662*
X03175Y03662*
X03175Y03663*
X03175Y03663*
X03175Y03664*
X03176Y03665*
Y03565D02*
D01*
X03175Y03565*
X03175Y03566*
X03175Y03566*
X03175Y03567*
X03175Y03567*
X03175Y03568*
X03175Y03568*
X03174Y03569*
X03174Y03569*
X03174Y03570*
X03173Y03570*
X03173Y03570*
X03172Y03571*
X03172Y03571*
X03172Y03571*
X03171Y03572*
X03170Y03572*
X03170Y03572*
X03169Y03572*
X03169Y03572*
X03168Y03572*
X03168Y03572*
X03167*
X03167Y03572*
X03166Y03572*
X03166Y03572*
X03165Y03572*
X03165Y03572*
X03164Y03572*
X03164Y03571*
X03163Y03571*
X03163Y03571*
X03162Y03570*
X03162Y03570*
X03161Y03570*
X03161Y03569*
X03161Y03569*
X03160Y03568*
X03160Y03568*
X03160Y03567*
X03160Y03567*
X03160Y03566*
X03160Y03566*
X03160Y03565*
X03160Y03565*
X03160Y03564*
X03160Y03563*
X03160Y03563*
X03160Y03562*
X03160Y03562*
X03160Y03561*
X03160Y03561*
X03161Y03560*
X03161Y03560*
X03161Y03559*
X03162Y03559*
X03162Y03559*
X03163Y03558*
X03163Y03558*
X03164Y03558*
X03164Y03557*
X03165Y03557*
X03165Y03557*
X03166Y03557*
X03166Y03557*
X03167Y03557*
X03167Y03557*
X03168*
X03168Y03557*
X03169Y03557*
X03169Y03557*
X03170Y03557*
X03170Y03557*
X03171Y03557*
X03172Y03558*
X03172Y03558*
X03172Y03558*
X03173Y03559*
X03173Y03559*
X03174Y03559*
X03174Y03560*
X03174Y03560*
X03175Y03561*
X03175Y03561*
X03175Y03562*
X03175Y03562*
X03175Y03563*
X03175Y03563*
X03175Y03564*
X03176Y03565*
X03276Y03665D02*
D01*
X03275Y03665*
X03275Y03666*
X03275Y03666*
X03275Y03667*
X03275Y03667*
X03275Y03668*
X03275Y03668*
X03274Y03669*
X03274Y03669*
X03274Y03670*
X03273Y03670*
X03273Y03670*
X03272Y03671*
X03272Y03671*
X03272Y03671*
X03271Y03672*
X03270Y03672*
X03270Y03672*
X03269Y03672*
X03269Y03672*
X03268Y03672*
X03268Y03672*
X03267*
X03267Y03672*
X03266Y03672*
X03266Y03672*
X03265Y03672*
X03265Y03672*
X03264Y03672*
X03264Y03671*
X03263Y03671*
X03263Y03671*
X03262Y03670*
X03262Y03670*
X03261Y03670*
X03261Y03669*
X03261Y03669*
X03260Y03668*
X03260Y03668*
X03260Y03667*
X03260Y03667*
X03260Y03666*
X03260Y03666*
X03260Y03665*
X03260Y03665*
X03260Y03664*
X03260Y03663*
X03260Y03663*
X03260Y03662*
X03260Y03662*
X03260Y03661*
X03260Y03661*
X03261Y03660*
X03261Y03660*
X03261Y03659*
X03262Y03659*
X03262Y03659*
X03263Y03658*
X03263Y03658*
X03264Y03658*
X03264Y03657*
X03265Y03657*
X03265Y03657*
X03266Y03657*
X03266Y03657*
X03267Y03657*
X03267Y03657*
X03268*
X03268Y03657*
X03269Y03657*
X03269Y03657*
X03270Y03657*
X03270Y03657*
X03271Y03657*
X03272Y03658*
X03272Y03658*
X03272Y03658*
X03273Y03659*
X03273Y03659*
X03274Y03659*
X03274Y03660*
X03274Y03660*
X03275Y03661*
X03275Y03661*
X03275Y03662*
X03275Y03662*
X03275Y03663*
X03275Y03663*
X03275Y03664*
X03276Y03665*
Y03565D02*
D01*
X03275Y03565*
X03275Y03566*
X03275Y03566*
X03275Y03567*
X03275Y03567*
X03275Y03568*
X03275Y03568*
X03274Y03569*
X03274Y03569*
X03274Y03570*
X03273Y03570*
X03273Y03570*
X03272Y03571*
X03272Y03571*
X03272Y03571*
X03271Y03572*
X03270Y03572*
X03270Y03572*
X03269Y03572*
X03269Y03572*
X03268Y03572*
X03268Y03572*
X03267*
X03267Y03572*
X03266Y03572*
X03266Y03572*
X03265Y03572*
X03265Y03572*
X03264Y03572*
X03264Y03571*
X03263Y03571*
X03263Y03571*
X03262Y03570*
X03262Y03570*
X03261Y03570*
X03261Y03569*
X03261Y03569*
X03260Y03568*
X03260Y03568*
X03260Y03567*
X03260Y03567*
X03260Y03566*
X03260Y03566*
X03260Y03565*
X03260Y03565*
X03260Y03564*
X03260Y03563*
X03260Y03563*
X03260Y03562*
X03260Y03562*
X03260Y03561*
X03260Y03561*
X03261Y03560*
X03261Y03560*
X03261Y03559*
X03262Y03559*
X03262Y03559*
X03263Y03558*
X03263Y03558*
X03264Y03558*
X03264Y03557*
X03265Y03557*
X03265Y03557*
X03266Y03557*
X03266Y03557*
X03267Y03557*
X03267Y03557*
X03268*
X03268Y03557*
X03269Y03557*
X03269Y03557*
X03270Y03557*
X03270Y03557*
X03271Y03557*
X03272Y03558*
X03272Y03558*
X03272Y03558*
X03273Y03559*
X03273Y03559*
X03274Y03559*
X03274Y03560*
X03274Y03560*
X03275Y03561*
X03275Y03561*
X03275Y03562*
X03275Y03562*
X03275Y03563*
X03275Y03563*
X03275Y03564*
X03276Y03565*
X03271Y02503D02*
D01*
X03270Y02503*
X03270Y02504*
X03270Y02504*
X03270Y02505*
X03270Y02505*
X03270Y02506*
X03270Y02506*
X03269Y02507*
X03269Y02507*
X03269Y02508*
X03268Y02508*
X03268Y02508*
X03267Y02509*
X03267Y02509*
X03267Y02509*
X03266Y02510*
X03265Y02510*
X03265Y02510*
X03264Y02510*
X03264Y02510*
X03263Y02510*
X03263Y02510*
X03262*
X03262Y02510*
X03261Y02510*
X03261Y02510*
X03260Y02510*
X03260Y02510*
X03259Y02510*
X03259Y02509*
X03258Y02509*
X03258Y02509*
X03257Y02508*
X03257Y02508*
X03256Y02508*
X03256Y02507*
X03256Y02507*
X03255Y02506*
X03255Y02506*
X03255Y02505*
X03255Y02505*
X03255Y02504*
X03255Y02504*
X03255Y02503*
X03255Y02503*
X03255Y02502*
X03255Y02501*
X03255Y02501*
X03255Y02500*
X03255Y02500*
X03255Y02499*
X03255Y02499*
X03256Y02498*
X03256Y02498*
X03256Y02497*
X03257Y02497*
X03257Y02497*
X03258Y02496*
X03258Y02496*
X03259Y02496*
X03259Y02495*
X03260Y02495*
X03260Y02495*
X03261Y02495*
X03261Y02495*
X03262Y02495*
X03262Y02495*
X03263*
X03263Y02495*
X03264Y02495*
X03264Y02495*
X03265Y02495*
X03265Y02495*
X03266Y02495*
X03267Y02496*
X03267Y02496*
X03267Y02496*
X03268Y02497*
X03268Y02497*
X03269Y02497*
X03269Y02498*
X03269Y02498*
X03270Y02499*
X03270Y02499*
X03270Y02500*
X03270Y02500*
X03270Y02501*
X03270Y02501*
X03270Y02502*
X03271Y02503*
Y02603D02*
D01*
X03270Y02603*
X03270Y02604*
X03270Y02604*
X03270Y02605*
X03270Y02605*
X03270Y02606*
X03270Y02606*
X03269Y02607*
X03269Y02607*
X03269Y02608*
X03268Y02608*
X03268Y02608*
X03267Y02609*
X03267Y02609*
X03267Y02609*
X03266Y02610*
X03265Y02610*
X03265Y02610*
X03264Y02610*
X03264Y02610*
X03263Y02610*
X03263Y02610*
X03262*
X03262Y02610*
X03261Y02610*
X03261Y02610*
X03260Y02610*
X03260Y02610*
X03259Y02610*
X03259Y02609*
X03258Y02609*
X03258Y02609*
X03257Y02608*
X03257Y02608*
X03256Y02608*
X03256Y02607*
X03256Y02607*
X03255Y02606*
X03255Y02606*
X03255Y02605*
X03255Y02605*
X03255Y02604*
X03255Y02604*
X03255Y02603*
X03255Y02603*
X03255Y02602*
X03255Y02601*
X03255Y02601*
X03255Y02600*
X03255Y02600*
X03255Y02599*
X03255Y02599*
X03256Y02598*
X03256Y02598*
X03256Y02597*
X03257Y02597*
X03257Y02597*
X03258Y02596*
X03258Y02596*
X03259Y02596*
X03259Y02595*
X03260Y02595*
X03260Y02595*
X03261Y02595*
X03261Y02595*
X03262Y02595*
X03262Y02595*
X03263*
X03263Y02595*
X03264Y02595*
X03264Y02595*
X03265Y02595*
X03265Y02595*
X03266Y02595*
X03267Y02596*
X03267Y02596*
X03267Y02596*
X03268Y02597*
X03268Y02597*
X03269Y02597*
X03269Y02598*
X03269Y02598*
X03270Y02599*
X03270Y02599*
X03270Y02600*
X03270Y02600*
X03270Y02601*
X03270Y02601*
X03270Y02602*
X03271Y02603*
X03171Y02503D02*
D01*
X03170Y02503*
X03170Y02504*
X03170Y02504*
X03170Y02505*
X03170Y02505*
X03170Y02506*
X03170Y02506*
X03169Y02507*
X03169Y02507*
X03169Y02508*
X03168Y02508*
X03168Y02508*
X03167Y02509*
X03167Y02509*
X03167Y02509*
X03166Y02510*
X03165Y02510*
X03165Y02510*
X03164Y02510*
X03164Y02510*
X03163Y02510*
X03163Y02510*
X03162*
X03162Y02510*
X03161Y02510*
X03161Y02510*
X03160Y02510*
X03160Y02510*
X03159Y02510*
X03159Y02509*
X03158Y02509*
X03158Y02509*
X03157Y02508*
X03157Y02508*
X03156Y02508*
X03156Y02507*
X03156Y02507*
X03155Y02506*
X03155Y02506*
X03155Y02505*
X03155Y02505*
X03155Y02504*
X03155Y02504*
X03155Y02503*
X03155Y02503*
X03155Y02502*
X03155Y02501*
X03155Y02501*
X03155Y02500*
X03155Y02500*
X03155Y02499*
X03155Y02499*
X03156Y02498*
X03156Y02498*
X03156Y02497*
X03157Y02497*
X03157Y02497*
X03158Y02496*
X03158Y02496*
X03159Y02496*
X03159Y02495*
X03160Y02495*
X03160Y02495*
X03161Y02495*
X03161Y02495*
X03162Y02495*
X03162Y02495*
X03163*
X03163Y02495*
X03164Y02495*
X03164Y02495*
X03165Y02495*
X03165Y02495*
X03166Y02495*
X03167Y02496*
X03167Y02496*
X03167Y02496*
X03168Y02497*
X03168Y02497*
X03169Y02497*
X03169Y02498*
X03169Y02498*
X03170Y02499*
X03170Y02499*
X03170Y02500*
X03170Y02500*
X03170Y02501*
X03170Y02501*
X03170Y02502*
X03171Y02503*
Y02603D02*
D01*
X03170Y02603*
X03170Y02604*
X03170Y02604*
X03170Y02605*
X03170Y02605*
X03170Y02606*
X03170Y02606*
X03169Y02607*
X03169Y02607*
X03169Y02608*
X03168Y02608*
X03168Y02608*
X03167Y02609*
X03167Y02609*
X03167Y02609*
X03166Y02610*
X03165Y02610*
X03165Y02610*
X03164Y02610*
X03164Y02610*
X03163Y02610*
X03163Y02610*
X03162*
X03162Y02610*
X03161Y02610*
X03161Y02610*
X03160Y02610*
X03160Y02610*
X03159Y02610*
X03159Y02609*
X03158Y02609*
X03158Y02609*
X03157Y02608*
X03157Y02608*
X03156Y02608*
X03156Y02607*
X03156Y02607*
X03155Y02606*
X03155Y02606*
X03155Y02605*
X03155Y02605*
X03155Y02604*
X03155Y02604*
X03155Y02603*
X03155Y02603*
X03155Y02602*
X03155Y02601*
X03155Y02601*
X03155Y02600*
X03155Y02600*
X03155Y02599*
X03155Y02599*
X03156Y02598*
X03156Y02598*
X03156Y02597*
X03157Y02597*
X03157Y02597*
X03158Y02596*
X03158Y02596*
X03159Y02596*
X03159Y02595*
X03160Y02595*
X03160Y02595*
X03161Y02595*
X03161Y02595*
X03162Y02595*
X03162Y02595*
X03163*
X03163Y02595*
X03164Y02595*
X03164Y02595*
X03165Y02595*
X03165Y02595*
X03166Y02595*
X03167Y02596*
X03167Y02596*
X03167Y02596*
X03168Y02597*
X03168Y02597*
X03169Y02597*
X03169Y02598*
X03169Y02598*
X03170Y02599*
X03170Y02599*
X03170Y02600*
X03170Y02600*
X03170Y02601*
X03170Y02601*
X03170Y02602*
X03171Y02603*
X03071Y02503D02*
D01*
X03070Y02503*
X03070Y02504*
X03070Y02504*
X03070Y02505*
X03070Y02505*
X03070Y02506*
X03070Y02506*
X03069Y02507*
X03069Y02507*
X03069Y02508*
X03068Y02508*
X03068Y02508*
X03067Y02509*
X03067Y02509*
X03067Y02509*
X03066Y02510*
X03065Y02510*
X03065Y02510*
X03064Y02510*
X03064Y02510*
X03063Y02510*
X03063Y02510*
X03062*
X03062Y02510*
X03061Y02510*
X03061Y02510*
X03060Y02510*
X03060Y02510*
X03059Y02510*
X03059Y02509*
X03058Y02509*
X03058Y02509*
X03057Y02508*
X03057Y02508*
X03056Y02508*
X03056Y02507*
X03056Y02507*
X03055Y02506*
X03055Y02506*
X03055Y02505*
X03055Y02505*
X03055Y02504*
X03055Y02504*
X03055Y02503*
X03055Y02503*
X03055Y02502*
X03055Y02501*
X03055Y02501*
X03055Y02500*
X03055Y02500*
X03055Y02499*
X03055Y02499*
X03056Y02498*
X03056Y02498*
X03056Y02497*
X03057Y02497*
X03057Y02497*
X03058Y02496*
X03058Y02496*
X03059Y02496*
X03059Y02495*
X03060Y02495*
X03060Y02495*
X03061Y02495*
X03061Y02495*
X03062Y02495*
X03062Y02495*
X03063*
X03063Y02495*
X03064Y02495*
X03064Y02495*
X03065Y02495*
X03065Y02495*
X03066Y02495*
X03067Y02496*
X03067Y02496*
X03067Y02496*
X03068Y02497*
X03068Y02497*
X03069Y02497*
X03069Y02498*
X03069Y02498*
X03070Y02499*
X03070Y02499*
X03070Y02500*
X03070Y02500*
X03070Y02501*
X03070Y02501*
X03070Y02502*
X03071Y02503*
Y02603D02*
D01*
X03070Y02603*
X03070Y02604*
X03070Y02604*
X03070Y02605*
X03070Y02605*
X03070Y02606*
X03070Y02606*
X03069Y02607*
X03069Y02607*
X03069Y02608*
X03068Y02608*
X03068Y02608*
X03067Y02609*
X03067Y02609*
X03067Y02609*
X03066Y02610*
X03065Y02610*
X03065Y02610*
X03064Y02610*
X03064Y02610*
X03063Y02610*
X03063Y02610*
X03062*
X03062Y02610*
X03061Y02610*
X03061Y02610*
X03060Y02610*
X03060Y02610*
X03059Y02610*
X03059Y02609*
X03058Y02609*
X03058Y02609*
X03057Y02608*
X03057Y02608*
X03056Y02608*
X03056Y02607*
X03056Y02607*
X03055Y02606*
X03055Y02606*
X03055Y02605*
X03055Y02605*
X03055Y02604*
X03055Y02604*
X03055Y02603*
X03055Y02603*
X03055Y02602*
X03055Y02601*
X03055Y02601*
X03055Y02600*
X03055Y02600*
X03055Y02599*
X03055Y02599*
X03056Y02598*
X03056Y02598*
X03056Y02597*
X03057Y02597*
X03057Y02597*
X03058Y02596*
X03058Y02596*
X03059Y02596*
X03059Y02595*
X03060Y02595*
X03060Y02595*
X03061Y02595*
X03061Y02595*
X03062Y02595*
X03062Y02595*
X03063*
X03063Y02595*
X03064Y02595*
X03064Y02595*
X03065Y02595*
X03065Y02595*
X03066Y02595*
X03067Y02596*
X03067Y02596*
X03067Y02596*
X03068Y02597*
X03068Y02597*
X03069Y02597*
X03069Y02598*
X03069Y02598*
X03070Y02599*
X03070Y02599*
X03070Y02600*
X03070Y02600*
X03070Y02601*
X03070Y02601*
X03070Y02602*
X03071Y02603*
X02971Y02503D02*
D01*
X02970Y02503*
X02970Y02504*
X02970Y02504*
X02970Y02505*
X02970Y02505*
X02970Y02506*
X02970Y02506*
X02969Y02507*
X02969Y02507*
X02969Y02508*
X02968Y02508*
X02968Y02508*
X02967Y02509*
X02967Y02509*
X02967Y02509*
X02966Y02510*
X02965Y02510*
X02965Y02510*
X02964Y02510*
X02964Y02510*
X02963Y02510*
X02963Y02510*
X02962*
X02962Y02510*
X02961Y02510*
X02961Y02510*
X02960Y02510*
X02960Y02510*
X02959Y02510*
X02959Y02509*
X02958Y02509*
X02958Y02509*
X02957Y02508*
X02957Y02508*
X02956Y02508*
X02956Y02507*
X02956Y02507*
X02955Y02506*
X02955Y02506*
X02955Y02505*
X02955Y02505*
X02955Y02504*
X02955Y02504*
X02955Y02503*
X02955Y02503*
X02955Y02502*
X02955Y02501*
X02955Y02501*
X02955Y02500*
X02955Y02500*
X02955Y02499*
X02955Y02499*
X02956Y02498*
X02956Y02498*
X02956Y02497*
X02957Y02497*
X02957Y02497*
X02958Y02496*
X02958Y02496*
X02959Y02496*
X02959Y02495*
X02960Y02495*
X02960Y02495*
X02961Y02495*
X02961Y02495*
X02962Y02495*
X02962Y02495*
X02963*
X02963Y02495*
X02964Y02495*
X02964Y02495*
X02965Y02495*
X02965Y02495*
X02966Y02495*
X02967Y02496*
X02967Y02496*
X02967Y02496*
X02968Y02497*
X02968Y02497*
X02969Y02497*
X02969Y02498*
X02969Y02498*
X02970Y02499*
X02970Y02499*
X02970Y02500*
X02970Y02500*
X02970Y02501*
X02970Y02501*
X02970Y02502*
X02971Y02503*
Y02603D02*
D01*
X02970Y02603*
X02970Y02604*
X02970Y02604*
X02970Y02605*
X02970Y02605*
X02970Y02606*
X02970Y02606*
X02969Y02607*
X02969Y02607*
X02969Y02608*
X02968Y02608*
X02968Y02608*
X02967Y02609*
X02967Y02609*
X02967Y02609*
X02966Y02610*
X02965Y02610*
X02965Y02610*
X02964Y02610*
X02964Y02610*
X02963Y02610*
X02963Y02610*
X02962*
X02962Y02610*
X02961Y02610*
X02961Y02610*
X02960Y02610*
X02960Y02610*
X02959Y02610*
X02959Y02609*
X02958Y02609*
X02958Y02609*
X02957Y02608*
X02957Y02608*
X02956Y02608*
X02956Y02607*
X02956Y02607*
X02955Y02606*
X02955Y02606*
X02955Y02605*
X02955Y02605*
X02955Y02604*
X02955Y02604*
X02955Y02603*
X02955Y02603*
X02955Y02602*
X02955Y02601*
X02955Y02601*
X02955Y02600*
X02955Y02600*
X02955Y02599*
X02955Y02599*
X02956Y02598*
X02956Y02598*
X02956Y02597*
X02957Y02597*
X02957Y02597*
X02958Y02596*
X02958Y02596*
X02959Y02596*
X02959Y02595*
X02960Y02595*
X02960Y02595*
X02961Y02595*
X02961Y02595*
X02962Y02595*
X02962Y02595*
X02963*
X02963Y02595*
X02964Y02595*
X02964Y02595*
X02965Y02595*
X02965Y02595*
X02966Y02595*
X02967Y02596*
X02967Y02596*
X02967Y02596*
X02968Y02597*
X02968Y02597*
X02969Y02597*
X02969Y02598*
X02969Y02598*
X02970Y02599*
X02970Y02599*
X02970Y02600*
X02970Y02600*
X02970Y02601*
X02970Y02601*
X02970Y02602*
X02971Y02603*
X02871Y02503D02*
D01*
X02870Y02503*
X02870Y02504*
X02870Y02504*
X02870Y02505*
X02870Y02505*
X02870Y02506*
X02870Y02506*
X02869Y02507*
X02869Y02507*
X02869Y02508*
X02868Y02508*
X02868Y02508*
X02867Y02509*
X02867Y02509*
X02867Y02509*
X02866Y02510*
X02865Y02510*
X02865Y02510*
X02864Y02510*
X02864Y02510*
X02863Y02510*
X02863Y02510*
X02862*
X02862Y02510*
X02861Y02510*
X02861Y02510*
X02860Y02510*
X02860Y02510*
X02859Y02510*
X02859Y02509*
X02858Y02509*
X02858Y02509*
X02857Y02508*
X02857Y02508*
X02856Y02508*
X02856Y02507*
X02856Y02507*
X02855Y02506*
X02855Y02506*
X02855Y02505*
X02855Y02505*
X02855Y02504*
X02855Y02504*
X02855Y02503*
X02855Y02503*
X02855Y02502*
X02855Y02501*
X02855Y02501*
X02855Y02500*
X02855Y02500*
X02855Y02499*
X02855Y02499*
X02856Y02498*
X02856Y02498*
X02856Y02497*
X02857Y02497*
X02857Y02497*
X02858Y02496*
X02858Y02496*
X02859Y02496*
X02859Y02495*
X02860Y02495*
X02860Y02495*
X02861Y02495*
X02861Y02495*
X02862Y02495*
X02862Y02495*
X02863*
X02863Y02495*
X02864Y02495*
X02864Y02495*
X02865Y02495*
X02865Y02495*
X02866Y02495*
X02867Y02496*
X02867Y02496*
X02867Y02496*
X02868Y02497*
X02868Y02497*
X02869Y02497*
X02869Y02498*
X02869Y02498*
X02870Y02499*
X02870Y02499*
X02870Y02500*
X02870Y02500*
X02870Y02501*
X02870Y02501*
X02870Y02502*
X02871Y02503*
Y02603D02*
D01*
X02870Y02603*
X02870Y02604*
X02870Y02604*
X02870Y02605*
X02870Y02605*
X02870Y02606*
X02870Y02606*
X02869Y02607*
X02869Y02607*
X02869Y02608*
X02868Y02608*
X02868Y02608*
X02867Y02609*
X02867Y02609*
X02867Y02609*
X02866Y02610*
X02865Y02610*
X02865Y02610*
X02864Y02610*
X02864Y02610*
X02863Y02610*
X02863Y02610*
X02862*
X02862Y02610*
X02861Y02610*
X02861Y02610*
X02860Y02610*
X02860Y02610*
X02859Y02610*
X02859Y02609*
X02858Y02609*
X02858Y02609*
X02857Y02608*
X02857Y02608*
X02856Y02608*
X02856Y02607*
X02856Y02607*
X02855Y02606*
X02855Y02606*
X02855Y02605*
X02855Y02605*
X02855Y02604*
X02855Y02604*
X02855Y02603*
X02855Y02603*
X02855Y02602*
X02855Y02601*
X02855Y02601*
X02855Y02600*
X02855Y02600*
X02855Y02599*
X02855Y02599*
X02856Y02598*
X02856Y02598*
X02856Y02597*
X02857Y02597*
X02857Y02597*
X02858Y02596*
X02858Y02596*
X02859Y02596*
X02859Y02595*
X02860Y02595*
X02860Y02595*
X02861Y02595*
X02861Y02595*
X02862Y02595*
X02862Y02595*
X02863*
X02863Y02595*
X02864Y02595*
X02864Y02595*
X02865Y02595*
X02865Y02595*
X02866Y02595*
X02867Y02596*
X02867Y02596*
X02867Y02596*
X02868Y02597*
X02868Y02597*
X02869Y02597*
X02869Y02598*
X02869Y02598*
X02870Y02599*
X02870Y02599*
X02870Y02600*
X02870Y02600*
X02870Y02601*
X02870Y02601*
X02870Y02602*
X02871Y02603*
X03316Y02305D02*
D01*
X03315Y02305*
X03315Y02306*
X03315Y02306*
X03315Y02307*
X03315Y02307*
X03315Y02308*
X03315Y02308*
X03314Y02309*
X03314Y02309*
X03314Y02310*
X03313Y02310*
X03313Y02310*
X03312Y02311*
X03312Y02311*
X03312Y02311*
X03311Y02312*
X03310Y02312*
X03310Y02312*
X03309Y02312*
X03309Y02312*
X03308Y02312*
X03308Y02312*
X03307*
X03307Y02312*
X03306Y02312*
X03306Y02312*
X03305Y02312*
X03305Y02312*
X03304Y02312*
X03304Y02311*
X03303Y02311*
X03303Y02311*
X03302Y02310*
X03302Y02310*
X03301Y02310*
X03301Y02309*
X03301Y02309*
X03300Y02308*
X03300Y02308*
X03300Y02307*
X03300Y02307*
X03300Y02306*
X03300Y02306*
X03300Y02305*
X03300Y02305*
X03300Y02304*
X03300Y02303*
X03300Y02303*
X03300Y02302*
X03300Y02302*
X03300Y02301*
X03300Y02301*
X03301Y02300*
X03301Y02300*
X03301Y02299*
X03302Y02299*
X03302Y02299*
X03303Y02298*
X03303Y02298*
X03304Y02298*
X03304Y02297*
X03305Y02297*
X03305Y02297*
X03306Y02297*
X03306Y02297*
X03307Y02297*
X03307Y02297*
X03308*
X03308Y02297*
X03309Y02297*
X03309Y02297*
X03310Y02297*
X03310Y02297*
X03311Y02297*
X03312Y02298*
X03312Y02298*
X03312Y02298*
X03313Y02299*
X03313Y02299*
X03314Y02299*
X03314Y02300*
X03314Y02300*
X03315Y02301*
X03315Y02301*
X03315Y02302*
X03315Y02302*
X03315Y02303*
X03315Y02303*
X03315Y02304*
X03316Y02305*
X03216D02*
D01*
X03215Y02305*
X03215Y02306*
X03215Y02306*
X03215Y02307*
X03215Y02307*
X03215Y02308*
X03215Y02308*
X03214Y02309*
X03214Y02309*
X03214Y02310*
X03213Y02310*
X03213Y02310*
X03212Y02311*
X03212Y02311*
X03212Y02311*
X03211Y02312*
X03210Y02312*
X03210Y02312*
X03209Y02312*
X03209Y02312*
X03208Y02312*
X03208Y02312*
X03207*
X03207Y02312*
X03206Y02312*
X03206Y02312*
X03205Y02312*
X03205Y02312*
X03204Y02312*
X03204Y02311*
X03203Y02311*
X03203Y02311*
X03202Y02310*
X03202Y02310*
X03201Y02310*
X03201Y02309*
X03201Y02309*
X03200Y02308*
X03200Y02308*
X03200Y02307*
X03200Y02307*
X03200Y02306*
X03200Y02306*
X03200Y02305*
X03200Y02305*
X03200Y02304*
X03200Y02303*
X03200Y02303*
X03200Y02302*
X03200Y02302*
X03200Y02301*
X03200Y02301*
X03201Y02300*
X03201Y02300*
X03201Y02299*
X03202Y02299*
X03202Y02299*
X03203Y02298*
X03203Y02298*
X03204Y02298*
X03204Y02297*
X03205Y02297*
X03205Y02297*
X03206Y02297*
X03206Y02297*
X03207Y02297*
X03207Y02297*
X03208*
X03208Y02297*
X03209Y02297*
X03209Y02297*
X03210Y02297*
X03210Y02297*
X03211Y02297*
X03212Y02298*
X03212Y02298*
X03212Y02298*
X03213Y02299*
X03213Y02299*
X03214Y02299*
X03214Y02300*
X03214Y02300*
X03215Y02301*
X03215Y02301*
X03215Y02302*
X03215Y02302*
X03215Y02303*
X03215Y02303*
X03215Y02304*
X03216Y02305*
X03116D02*
D01*
X03115Y02305*
X03115Y02306*
X03115Y02306*
X03115Y02307*
X03115Y02307*
X03115Y02308*
X03115Y02308*
X03114Y02309*
X03114Y02309*
X03114Y02310*
X03113Y02310*
X03113Y02310*
X03112Y02311*
X03112Y02311*
X03112Y02311*
X03111Y02312*
X03110Y02312*
X03110Y02312*
X03109Y02312*
X03109Y02312*
X03108Y02312*
X03108Y02312*
X03107*
X03107Y02312*
X03106Y02312*
X03106Y02312*
X03105Y02312*
X03105Y02312*
X03104Y02312*
X03104Y02311*
X03103Y02311*
X03103Y02311*
X03102Y02310*
X03102Y02310*
X03101Y02310*
X03101Y02309*
X03101Y02309*
X03100Y02308*
X03100Y02308*
X03100Y02307*
X03100Y02307*
X03100Y02306*
X03100Y02306*
X03100Y02305*
X03100Y02305*
X03100Y02304*
X03100Y02303*
X03100Y02303*
X03100Y02302*
X03100Y02302*
X03100Y02301*
X03100Y02301*
X03101Y02300*
X03101Y02300*
X03101Y02299*
X03102Y02299*
X03102Y02299*
X03103Y02298*
X03103Y02298*
X03104Y02298*
X03104Y02297*
X03105Y02297*
X03105Y02297*
X03106Y02297*
X03106Y02297*
X03107Y02297*
X03107Y02297*
X03108*
X03108Y02297*
X03109Y02297*
X03109Y02297*
X03110Y02297*
X03110Y02297*
X03111Y02297*
X03112Y02298*
X03112Y02298*
X03112Y02298*
X03113Y02299*
X03113Y02299*
X03114Y02299*
X03114Y02300*
X03114Y02300*
X03115Y02301*
X03115Y02301*
X03115Y02302*
X03115Y02302*
X03115Y02303*
X03115Y02303*
X03115Y02304*
X03116Y02305*
X03016D02*
D01*
X03015Y02305*
X03015Y02306*
X03015Y02306*
X03015Y02307*
X03015Y02307*
X03015Y02308*
X03015Y02308*
X03014Y02309*
X03014Y02309*
X03014Y02310*
X03013Y02310*
X03013Y02310*
X03012Y02311*
X03012Y02311*
X03012Y02311*
X03011Y02312*
X03010Y02312*
X03010Y02312*
X03009Y02312*
X03009Y02312*
X03008Y02312*
X03008Y02312*
X03007*
X03007Y02312*
X03006Y02312*
X03006Y02312*
X03005Y02312*
X03005Y02312*
X03004Y02312*
X03004Y02311*
X03003Y02311*
X03003Y02311*
X03002Y02310*
X03002Y02310*
X03001Y02310*
X03001Y02309*
X03001Y02309*
X03000Y02308*
X03000Y02308*
X03000Y02307*
X03000Y02307*
X03000Y02306*
X03000Y02306*
X03000Y02305*
X03000Y02305*
X03000Y02304*
X03000Y02303*
X03000Y02303*
X03000Y02302*
X03000Y02302*
X03000Y02301*
X03000Y02301*
X03001Y02300*
X03001Y02300*
X03001Y02299*
X03002Y02299*
X03002Y02299*
X03003Y02298*
X03003Y02298*
X03004Y02298*
X03004Y02297*
X03005Y02297*
X03005Y02297*
X03006Y02297*
X03006Y02297*
X03007Y02297*
X03007Y02297*
X03008*
X03008Y02297*
X03009Y02297*
X03009Y02297*
X03010Y02297*
X03010Y02297*
X03011Y02297*
X03012Y02298*
X03012Y02298*
X03012Y02298*
X03013Y02299*
X03013Y02299*
X03014Y02299*
X03014Y02300*
X03014Y02300*
X03015Y02301*
X03015Y02301*
X03015Y02302*
X03015Y02302*
X03015Y02303*
X03015Y02303*
X03015Y02304*
X03016Y02305*
X02916D02*
D01*
X02915Y02305*
X02915Y02306*
X02915Y02306*
X02915Y02307*
X02915Y02307*
X02915Y02308*
X02915Y02308*
X02914Y02309*
X02914Y02309*
X02914Y02310*
X02913Y02310*
X02913Y02310*
X02912Y02311*
X02912Y02311*
X02912Y02311*
X02911Y02312*
X02910Y02312*
X02910Y02312*
X02909Y02312*
X02909Y02312*
X02908Y02312*
X02908Y02312*
X02907*
X02907Y02312*
X02906Y02312*
X02906Y02312*
X02905Y02312*
X02905Y02312*
X02904Y02312*
X02904Y02311*
X02903Y02311*
X02903Y02311*
X02902Y02310*
X02902Y02310*
X02901Y02310*
X02901Y02309*
X02901Y02309*
X02900Y02308*
X02900Y02308*
X02900Y02307*
X02900Y02307*
X02900Y02306*
X02900Y02306*
X02900Y02305*
X02900Y02305*
X02900Y02304*
X02900Y02303*
X02900Y02303*
X02900Y02302*
X02900Y02302*
X02900Y02301*
X02900Y02301*
X02901Y02300*
X02901Y02300*
X02901Y02299*
X02902Y02299*
X02902Y02299*
X02903Y02298*
X02903Y02298*
X02904Y02298*
X02904Y02297*
X02905Y02297*
X02905Y02297*
X02906Y02297*
X02906Y02297*
X02907Y02297*
X02907Y02297*
X02908*
X02908Y02297*
X02909Y02297*
X02909Y02297*
X02910Y02297*
X02910Y02297*
X02911Y02297*
X02912Y02298*
X02912Y02298*
X02912Y02298*
X02913Y02299*
X02913Y02299*
X02914Y02299*
X02914Y02300*
X02914Y02300*
X02915Y02301*
X02915Y02301*
X02915Y02302*
X02915Y02302*
X02915Y02303*
X02915Y02303*
X02915Y02304*
X02916Y02305*
X02816D02*
D01*
X02815Y02305*
X02815Y02306*
X02815Y02306*
X02815Y02307*
X02815Y02307*
X02815Y02308*
X02815Y02308*
X02814Y02309*
X02814Y02309*
X02814Y02310*
X02813Y02310*
X02813Y02310*
X02812Y02311*
X02812Y02311*
X02812Y02311*
X02811Y02312*
X02810Y02312*
X02810Y02312*
X02809Y02312*
X02809Y02312*
X02808Y02312*
X02808Y02312*
X02807*
X02807Y02312*
X02806Y02312*
X02806Y02312*
X02805Y02312*
X02805Y02312*
X02804Y02312*
X02804Y02311*
X02803Y02311*
X02803Y02311*
X02802Y02310*
X02802Y02310*
X02801Y02310*
X02801Y02309*
X02801Y02309*
X02800Y02308*
X02800Y02308*
X02800Y02307*
X02800Y02307*
X02800Y02306*
X02800Y02306*
X02800Y02305*
X02800Y02305*
X02800Y02304*
X02800Y02303*
X02800Y02303*
X02800Y02302*
X02800Y02302*
X02800Y02301*
X02800Y02301*
X02801Y02300*
X02801Y02300*
X02801Y02299*
X02802Y02299*
X02802Y02299*
X02803Y02298*
X02803Y02298*
X02804Y02298*
X02804Y02297*
X02805Y02297*
X02805Y02297*
X02806Y02297*
X02806Y02297*
X02807Y02297*
X02807Y02297*
X02808*
X02808Y02297*
X02809Y02297*
X02809Y02297*
X02810Y02297*
X02810Y02297*
X02811Y02297*
X02812Y02298*
X02812Y02298*
X02812Y02298*
X02813Y02299*
X02813Y02299*
X02814Y02299*
X02814Y02300*
X02814Y02300*
X02815Y02301*
X02815Y02301*
X02815Y02302*
X02815Y02302*
X02815Y02303*
X02815Y02303*
X02815Y02304*
X02816Y02305*
M02*